<svg fill="none" height="48" viewBox="0 0 49 48" width="49" xmlns="http://www.w3.org/2000/svg"><g fill="#4e1f6f"><path d="m23.0668 28.2974c1.995-.99 4.35-1.2 6.6375-.6 2.28.615 4.215 1.965 5.46 3.81.1425.21.375.33.6225.33h.09c.2775-.0375.5175-.225.615-.4875l.09-.2775c.525-1.9575.2625-4.0125-.735-5.7825-1.005-1.7775-2.6175-3.0375-4.545-3.555-4.005-1.0725-8.1525 1.3725-9.255 5.4825-.075.3375-.1575.72.24 1.0125.225.165.525.195.78.0675zm7.845-5.115c1.5375.4125 2.8275 1.425 3.63 2.8425.5775 1.0275.8475 2.175.8025 3.3225-1.3875-1.47-3.2025-2.5425-5.2575-3.0975-.9825-.255-1.9725-.39-2.9475-.39-1.08 0-2.1375.1575-3.1575.465 1.29-2.5125 4.155-3.885 6.93-3.1425zm-7.1775-5.6175c2.1825-1.0425 4.02-.9 6.3375.495.12.075.255.105.39.105.0975 0 .2025-.0225.2925-.06.2175-.0975.3825-.2925.435-.525.51-2.265-.8475-4.5225-3.0975-5.1225-1.1175-.3-2.2875-.15-3.285.435-.9975.5775-1.7175 1.515-2.0175 2.6325-.12.465-.165.945-.1275 1.425.015.2475.1575.4725.375.5925.2175.1275.48.135.6975.03zm1.8225-3.375c.6525-.375 1.41-.48 2.145-.285 1.11.3 1.89 1.215 2.055 2.2875-1.1475-.5475-2.2275-.8175-3.3075-.8175-.7125 0-1.425.12-2.16.3525.2175-.6525.6675-1.1925 1.2675-1.5375zm8.64 4.98c2.7075-.045 4.3725.7425 5.7375 2.745.1425.2025.375.3225.6225.3225s.48-.12.615-.33c.27-.3975.4725-.8325.6-1.2975.615-2.31-.7575-4.6875-3.06-5.3025-2.25-.6-4.5525.675-5.2425 2.8875-.075.2325-.03.48.1125.675s.3675.2925.615.3zm4.1325-2.415c1.4475.39 2.3325 1.8375 2.04 3.285-1.2975-1.4325-2.865-2.1675-4.965-2.3325.6825-.84 1.815-1.245 2.925-.9525z"/><path d="m3.4693 19.3125 2.07 11.655c.6825 3.8175 3.5625 6.855 7.335 7.74l6.3525 1.485c.375.09.75.1275 1.125.1275 1.23 0 2.43-.465 3.3525-1.3275l2.595-2.4375c.6825.345 1.41.585 2.1825.585.375 0 .75-.045 1.125-.1275l6.3525-1.485c3.78-.885 6.66-3.9225 7.335-7.74l2.0775-11.655c.3-1.6725-.7575-3.33-2.3925-3.765l-17.0925-4.58253c-1.6425-.4425-3.3825.465-3.96 2.0625l-.5625 1.54503-15.5025 4.155c-1.6425.4425-2.6925 2.0925-2.3925 3.765zm21.5625-10.14003c.15 0 .3075.0225.4575.06l17.0925 4.58253c.8925.24 1.47 1.14 1.305 2.055l-2.0775 11.655c-.5775 3.225-3.0075 5.7975-6.2025 6.5475l-6.345 1.485c-1.11.255-2.28-.0525-3.1125-.8325l-4.755-4.4625c-2.3925-2.2425-3.2175-5.685-2.1-8.7675l4.0275-11.13c.2625-.72003.96-1.18503 1.7025-1.18503zm-4.6575 22.17753c-.33.165-.6375.375-.9975.4725-2.79.7425-5.6625-.645-6.9375-3.1425 1.905.5775 3.99.6075 6.015.09.495.945 1.1025 1.83 1.905 2.58zm.3675-18.24-2.85 7.86c-.765 2.115-.675 4.335.0075 6.375-2.1975.5175-4.4475.3075-6.3675-.645-.255-.1275-.555-.0975-.78.0675s-.3375.45-.2925.7275c.015.0975.0375.195.0675.3225.915 3.4275 3.99 5.7 7.3275 5.7.63 0 1.275-.0825 1.9125-.255s1.2075-.5025 1.77-.825l3.4725 3.2625-2.34 2.19c-.8325.78-1.995 1.095-3.1125.8325l-6.3525-1.485c-3.195-.75-5.625-3.315-6.2025-6.54l-2.07-11.655c-.165-.915.4125-1.815 1.305-2.055l14.49-3.885z"/><path d="m7.65416 25.0876c.1425.2025.375.33.6225.33s.48-.12.6225-.3226c1.36504-1.995 3.00754-2.8049 5.73754-2.7374.255 0 .4725-.105.615-.3s.1875-.4425.1125-.675c-.6975-2.22-3-3.4875-5.2425-2.8875-1.11754.3-2.04754 1.0125-2.63254 2.0175-.5775 1.005-.735 2.1675-.435 3.2925.1275.465.33.9.6 1.2975zm1.1325-3.84c.375-.6525.99-1.125 1.71754-1.32 1.11-.2925 2.2425.105 2.925.9525-2.1.165-3.67504.9-4.96504 2.3325-.135-.675-.0225-1.365.3225-1.965z"/></g></svg>