<svg fill="none" height="48" viewBox="0 0 49 48" width="49" xmlns="http://www.w3.org/2000/svg"><g fill="#da0f5e"><path d="m36.3101 38.8537h-23.772c-1.6208 0-2.97145-1.3506-2.97145-2.9715v-21.8134c0-1.6208 1.08055-2.9715 2.49875-2.9715h1.4858v1.9585h-1.4858c-.2026 0-.4727.4052-.4727 1.013v21.8134c0 .5403.4727 1.0131 1.013 1.0131h23.7719c.5403 0 1.013-.4728 1.013-1.0131v-21.8134c0-.6078-.3376-1.013-.4727-1.013h-1.4858v-1.9585h1.4858c1.3507 0 2.4987 1.3507 2.4987 2.9715v21.8134c-.135 1.6209-1.4857 2.9715-3.1065 2.9715z"/><path d="m16.5224 15.0818c-.5403 0-1.013-.4727-1.013-1.013v-3.9845c0-.54027.4727-1.01301 1.013-1.01301s1.013.47274 1.013 1.01301v3.9845c-.0675.5403-.4727 1.013-1.013 1.013zm15.803 0c-.5403 0-1.0131-.4727-1.0131-1.013v-3.9845c0-.54027.4728-1.01301 1.0131-1.01301.5402 0 1.013.47274 1.013 1.01301v3.9845c0 .5403-.4728 1.013-1.013 1.013zm-12.8315-3.9845h9.86v2.026h-9.86zm-7.969 5.943h25.798v2.026h-25.798zm21.8135 3.9845h1.9584v1.9585h-1.9584zm-3.9845 0h2.026v1.9585h-2.026zm-3.917 0h1.9585v1.9585h-1.9585zm-3.9845 0h1.9585v1.9585h-1.9585zm-3.9845 0h2.026v1.9585h-2.026zm15.8705 3.9845h1.9584v1.9585h-1.9584zm-3.9845 0h2.026v1.9585h-2.026zm-3.917 0h1.9585v1.9585h-1.9585zm-3.9845 0h1.9585v1.9585h-1.9585zm-3.9845 0h2.026v1.9585h-2.026zm-3.917 0h1.9585v1.9585h-1.9585zm19.7875 3.917h1.9584v2.026h-1.9584zm-3.9845 0h2.026v2.026h-2.026zm-3.917 0h1.9585v2.026h-1.9585zm-3.9845 0h1.9585v2.026h-1.9585zm-3.9845 0h2.026v2.026h-2.026zm-3.917 0h1.9585v2.026h-1.9585zm15.803 3.9845h2.026v1.9584h-2.026zm-3.917 0h1.9585v1.9584h-1.9585zm-3.9845 0h1.9585v1.9584h-1.9585zm-3.9845 0h2.026v1.9584h-2.026zm-3.917 0h1.9585v1.9584h-1.9585z"/></g></svg>