<svg fill="none" height="34" viewBox="0 0 34 34" width="34" xmlns="http://www.w3.org/2000/svg"><path d="m5.31245 22.3125h5.31255v-1.0625h-5.31255zm8.50005 0h6.375v-1.0625h-6.375zm-7.52255-9.5625 1.45563-.5631 1.19-.4994 9.25442-3.50625 1.5193-.58437 9.5625-3.65501-1.5618-3.94187-1.2644.456875-3.5169 1.359995-3.4212 1.30688-.2338.06375-6.715 2.60312-.7969.30813-9.83872 3.77187.62687 1.63628c-.34125.2269-.60962.5476-.77276.9236-.16313.3759-.21409.791-.14671 1.1952.06737.4043.25019.7804.52644 1.0831.27624.3027.63413.5191 1.03053.6231v18.6681h27.62505v-21.25zm20.81435-11.40062.765 1.97625-1.3068.48874-.1063-2.24187zm-1.6043.62687.0531 2.27375-2.9219 1.0625-.0956-2.23125zm-4.0163 1.53.1063 2.23125-1.9338.74375-.0956-2.23125zm-3.8675 1.47688.8925-.34.1063 2.24187-2.9219 1.0625-.1063-2.23125zm-3.0706 1.17937.0956 2.24188-1.8912.74374-.1063-2.24187zm-2.975 1.1475.1169 2.2525-2.94317 1.0625-.09563-2.19938zm12.2612 6.5025h3.1344l-.7119 2.125h-3.1237zm-3.1875 0h2.0719l-.7119 2.125h-2.0612zm-4.25 0h3.1344l-.7119 2.125h-3.1237zm-3.1875 0h2.125l-.7118 2.125h-2.1144zm-4.24997 0h3.18747l-.7118 2.125h-3.17692zm-1.0625 0-.71188 2.125h-2.9325v-.6056c.36543-.0954.69883-.2865.96588-.5535.26705-.2671.45811-.6005.5535-.9659zm-.2975-4.98312.10625 2.24182-2.32688.8925c-.19789-.2504-.44966-.453-.73661-.5928s-.6017-.2132-.92089-.2147h-.15937l-.26563-.6693zm-4.94063 4.45182c0-.2101.06232-.4155.17907-.5902.11675-.1748.28269-.311.47683-.3914.19415-.0804.40778-.1014.61389-.0604.2061.041.39542.1422.54401.2907.1486.1486.24979.338.29079.5441.04099.2061.01995.4197-.06046.6139-.08042.1941-.21661.36-.39133.4768-.17473.1167-.38015.1791-.5903.1791-.28179 0-.55204-.112-.7513-.3112-.19926-.1993-.3112-.4696-.3112-.7514zm1.59375 6.9063h7.43755v6.375h-7.43755zm25.50005 12.75h-25.50005v-2.125h25.50005zm0-3.1875h-25.50005v-2.125h25.50005zm-17-3.1875v-6.375h8.5v6.375zm17 0h-7.4375v-6.375h7.4375zm0-7.4375h-25.50005v-2.125h25.50005zm0-3.1875h-2.3694l.7012-2.125h1.6682zm-1.0625 5.3125h-5.3125v1.0625h5.3125z" fill="#c1bd00"/></svg>