<svg fill="none" height="48" viewBox="0 0 48 48" width="48" xmlns="http://www.w3.org/2000/svg"><path d="m38.4757 42.1449-1.0331-2.1375-.7482-1.5081c-.2731-.7006-.6412-1.6269-1.0568-2.6362l-.7007-1.7694c-.5349-1.4158-.7505-2.9323-.6314-4.4411.119-1.5088.5698-2.9727 1.3202-4.287 1.4753-2.699 1.9465-5.8335 1.33-8.8469-.0296-.133-.1031-.2522-.2086-.3384-.1056-.0861-.237-.1343-.3733-.1366h-2.1969l-2.0306-8.03939c-.0302-.11376-.0919-.21667-.1781-.29687l-2.1494-1.9475c-.0732-.06516-.1614-.11119-.2567-.13399-.0953-.02279-.1948-.02163-.2895.00336-.0949.02495-.1823.07256-.2547.13876-.0724.06619-.1276.14898-.161.24125l-.9618 2.71937c-.0393.11083-.0435.2311-.0119.34438l1.7575 6.97063h-2.5769c-.2562-.8201-.5778-1.6183-.9619-2.3869-.1308-.2697-.2775-.5314-.4393-.7837v-.0119c.0584-.087.11-.1783.1543-.2731.4084-.6513.558-1.4318.4196-2.1879-.1385-.75604-.5551-1.43287-1.1677-1.89713-.1626-.1256-.3332-.24063-.5106-.34438-.1915-.1125-.3742-.23954-.5463-.38-.3206-.32062-.5106-.95-.2612-1.22313.0527-.05666.0937-.12324.1205-.19587s.0389-.14986.0355-.2272c-.0033-.07734-.0219-.15325-.0548-.22333-.0329-.07007-.0794-.1329-.1368-.18484-.0561-.05396-.1225-.09598-.1952-.12351-.0728-.02754-.1504-.04002-.2281-.03669s-.1539.02241-.2241.05606c-.0701.03366-.1327.08121-.1839.13976h-.0119c-.783.8797-1.334 1.94095-1.6031 3.0875-.2019.88443-.1371 1.80886.1863 2.65646s.8908 1.5803 1.6306 2.1054c-.0238.2731-.0238.5344-.0238.7838.0119.4987.0475 1.0568.1188 1.6506h-2.1494l-1.3419-8.07501c-.1307-.77629-.5645-1.46885-1.2059-1.92537-.6413-.45651-1.4377-.63961-2.2141-.509l-1.1756.19c-.3847.06402-.753.20338-1.0838.41008-.3307.20669-.6174.47665-.8436.7944-.2261.31774-.3873.67702-.4743 1.05721s-.0981.77382-.0327 1.15831l.1782 1.06878c0 .0356.0118.0593.0118.095 0 .0118.0119.0356.0119.0475l.57 3.3606c.0004.0267.0032.0533.0083.0796v.0332c0 .0119.0072.0166.0095.0261l.3622 2.1886h-1.8881c-.1362.0023-.2677.0505-.3733.1366-.1055.0862-.179.2054-.2086.3384-.1715.8603-.259 1.7352-.2612 2.6125 0 .2261.0119.452.0356.6769.0426 1.0279-.1064 2.0547-.4394 3.0281l-1.1281 3.4556c-.08816.2672-.11177.5514-.06892.8295.04286.278.15097.542.31548.7702s.38074.4143.63094.5428c.2503.1286.5274.1961.8087.1969h1.9357v2.6719c0 1.4172.563 2.7764 1.5651 3.7786 1.0022 1.0021 2.3614 1.5651 3.7786 1.5651h3.0519c.4246.0007.835.153 1.1573.4295.3222.2765.5351.659.6002 1.0786l.6294 4.0257c.0152.1845.0721.3631.1662.5225.0547.0898.1314.1642.2228.2161s.1946.0797.2997.0807h13.3119c.1007-.0004.1995-.0268.2869-.0768.0874-.0499.1604-.1216.2118-.2082.0533-.0847.0835-.1818.0876-.2818.0042-.1-.0178-.1993-.0638-.2882zm-9.405-33.19059.6175-1.70999 1.3419 1.22312.1306.49875-1.9594.49875zm.4275 1.66249 1.9475-.4869 1.5081 5.9138h-2.09zm-3.6931 5.4269h-1.425c-.1207-.8214-.1565-1.6531-.1069-2.4819.1425-.0356.2731-.0594.3681-.0831h.0119c.477.8101.8633 1.6703 1.1519 2.565zm-3.3844-6.93501c.088-.34888.2031-.69034.3444-1.02125.1156.19803.2597.37806.4275.53437.2257.21243.477.39592.7481.54625.1306.08313.2731.17813.4037.27313.3705.29157.6211.70891.7042 1.17301.0832.464-.0068.9424-.2529 1.3445-.0148.0456-.0347.0895-.0594.1306-.0237.0356-.0594.1069-.095.1663l-1.0212.2493c-.0729-.0571-.1405-.1207-.2019-.19-.4337-.3993-.7543-.9061-.9295-1.4691-.1751-.5629-.1986-1.16217-.068-1.73711zm-8.2888-1.48437c.1354-.19279.3082-.3563.5081-.48076.2-.12447.423-.20732.6557-.24362l1.1756-.20187c.0944-.01381.1896-.02175.285-.02376.4229.0002.8319.15083 1.1539.42496.322.27412.536.65387.6036 1.0713l1.3063 7.87313h-4.8094l-.2969-1.8264.5795-.0962c.077-.0131.1506-.0412.2167-.0828.0661-.0415.1233-.0957.1685-.1594.0451-.0636.0773-.1356.0947-.2117.0173-.0761.0195-.1549.0064-.2319-.0131-.0769-.0412-.1505-.0828-.2166-.0415-.0661-.0957-.1234-.1594-.1685-.0637-.0452-.1356-.0774-.2117-.0947s-.1549-.0195-.2319-.0064l-.5854.0973v-.0071l-.3765-2.3275v-.0119l1.748-.2909c.1457-.0352.2726-.1242.3554-.2492.0828-.1249.1152-.27649.0909-.42435-.0244-.14786-.1037-.28104-.2222-.37284-.1184-.0918-.2672-.13542-.4164-.12211l-1.7575.29213-.095-.59375c-.0409-.22784-.0356-.46155.0154-.68733.0509-.22578.1467-.43906.2814-.62723zm10.9607 34.18808-.5938-3.8356c-.0777-.528-.2979-1.0247-.6368-1.4369-.339-.4122-.7839-.7242-1.2869-.9025-.3228-.1205-.6649-.1809-1.0094-.1781h-3.0519c-1.1023 0-2.1594-.4379-2.9389-1.2173-.7794-.7795-1.2173-1.8366-1.2173-2.9389v-3.2657c0-.1574-.0626-.3085-.1739-.4198-.1114-.1114-.2624-.1739-.4199-.1739h-2.5294c-.0931-.0014-.1847-.0247-.2672-.068s-.1537-.1055-.2078-.1814c-.0538-.0745-.0893-.1606-.1038-.2513-.0144-.0908-.0073-.1837.0207-.2712l1.1281-3.4556c.3848-1.1176.5501-2.2991.4869-3.4794-.0119-.2019-.0237-.4037-.0237-.6056.0032-.6363.0548-1.2715.1543-1.9h1.5794l.0238.1069c-.0098-.0348-.0138-.0709-.0119-.1069h21.8619c.4265 2.5939-.0248 5.256-1.2825 7.5644-.8378 1.4684-1.3404 3.104-1.4718 4.7895-.1314 1.6856.1117 3.3793.7118 4.9598l.7125 1.7575c.4037 1.0094.7718 1.9357 1.0687 2.6719l.76 1.5556c.2019.4275.4156.855.6175 1.2825z" fill="#0a727b"/></svg>