<svg fill="none" height="38" viewBox="0 0 37 38" width="37" xmlns="http://www.w3.org/2000/svg" xmlns:xlink="http://www.w3.org/1999/xlink"><clipPath id="a"><path d="m0 .489258h37v37h-37z"/></clipPath><g clip-path="url(#a)"><path d="m31.2188 20.1455v-19.656242h-3.4688v2.543752c-6.1557.52022-12.3443.52022-18.5 0v-2.543752h-3.46875v19.656242h-2.3125v4.625h6.22062l6.35933 6.3594-6.35933 6.3594h4.90253l3.9081-3.9082 3.9081 3.9082h4.9025l-6.3593-6.3594 6.3593-6.3594h6.2206v-4.625zm-2.3126-18.49999h1.1563v1.15625l-.7516.06937h-.4047zm-21.9687 0h1.15625v1.30656h-.40469l-.75156-.15031zm0 2.37031h.6475c7.2596.70532 14.5704.70532 21.83 0h.6475v8.09378l-.7516.0693c-7.1906.6938-14.4312.6938-21.62184 0l-.75156-.1271zm23.125 9.24998v6.8797h-1.1563v-6.7872h.5088zm-2.3125.185v6.6947h-18.5v-6.6947c3.3184.2544 6.3016.3931 9.25.3931s5.9316-.1387 9.25-.3931zm-20.8125-.185h1.15625v6.8797h-1.15625zm4.3938 11.5047h1.6187l4.7291 4.7291-.8094.8093zm3.2606 0h7.8162l-3.9081 3.9081zm9.9206 11.5625h-1.6188l-3.5728-3.5728.8094-.8094zm-10.4063 0h-1.6187l11.5625-11.5625h1.6188zm18.2688-12.7187h-27.75v-2.3125h27.75z" fill="#5f802f"/></g></svg>