<svg fill="none" height="42" viewBox="0 0 43 42" width="43" xmlns="http://www.w3.org/2000/svg"><g fill="#3c1657"><path d="m14.8543 16.4066c.3624 0 .6562-.2938.6562-.6562 0-.3625-.2938-.6563-.6562-.6563-.3625 0-.6563.2938-.6563.6563 0 .3624.2938.6562.6563.6562z"/><path d="m18.7918 16.4066c.3624 0 .6562-.2938.6562-.6562 0-.3625-.2938-.6563-.6562-.6563-.3625 0-.6563.2938-.6563.6563 0 .3624.2938.6562.6563.6562z"/><g clip-rule="evenodd" fill-rule="evenodd"><path d="m12.8854 15.0938c0-.1741-.0691-.341-.1922-.4641-.1231-.123-.29-.1922-.464-.1922h-1.3375c-.5164 0-1.01058.2048-1.3748.5696-.18064.1804-.32393.3946-.42167.6304-.09775.2358-.14803.4886-.14796.7438v.0013c-.00009.2617.05139.5208.15148.7626.1001.2417.24685.4614.43188.6464.18502.1851.4047.3318.64647.4319.2418.1001.5009.1516.7625.1515h1.2896c.174 0 .3409-.0691.464-.1922s.1922-.29.1922-.464zm-1.3125.6562v1.3125h-.6333c-.1803 0-.3532-.0716-.4807-.1991s-.1991-.3005-.1991-.4808v-.0013c0-.0829.0163-.1651.0481-.2417.0318-.0767.0783-.1463.137-.2049.0587-.0587.1284-.1051.205-.1368.0767-.0317.1589-.048.2418-.0479h.6806zm9.8438-1.3125c-.1741 0-.341.0692-.4641.1922-.123.1231-.1922.29-.1922.4641v2.625c0 .174.0692.3409.1922.464.1231.1231.29.1922.4641.1922h1.2895c.2617.0001.5208-.0514.7626-.1515.2417-.1001.4614-.2468.6464-.4319.1851-.185.3318-.4047.4319-.6464.1001-.2418.1516-.5009.1515-.7626v-.0013c0-.5158-.2048-1.0099-.5696-1.3742-.1805-.1807-.3948-.3241-.6307-.4218-.2359-.0978-.4888-.148-.7442-.1478h-1.3368zm.6562 1.3125h.6812c.083-.0001.1651.0162.2418.0479s.1464.0781.205.1368c.0587.0586.1053.1282.1371.2049.0317.0766.0481.1588.0481.2417v.0013c0 .3754-.3045.6799-.6799.6799h-.6333z"/><path d="m12.2292 15.75c.1741 0 .341-.0691.4641-.1922s.1922-.29.1922-.464v-1.3126c0-.174.0691-.3409.1922-.464s.29-.1922.464-.1922h6.5625c.1741 0 .341.0691.4641.1922s.1922.29.1922.464v1.3126c0 .174.0691.3409.1922.464s.29.1922.464.1922h1.9688c.174 0 .341-.0691.464-.1922.1231-.1231.1922-.29.1922-.464v-2.2313c0-1.4968-.5946-2.93232-1.653-3.99073s-2.4939-1.65302-3.9907-1.65302h-3.15c-1.4968 0-2.9323.59461-3.9907 1.65302s-1.65305 2.49393-1.65305 3.99073v2.2313c0 .174.06914.3409.19221.464s.28994.1922.46404.1922zm-.6562-1.3125h-.6563v-1.575c0-.5688.1121-1.132.3297-1.6575.2177-.5255.5367-1.003.9389-1.40515.4022-.40219.8797-.72125 1.4052-.93891.5255-.21767 1.0887-.32969 1.6575-.32969h3.15c.5688 0 1.132.11202 1.6575.32969.5255.21766 1.003.53672 1.4052.93891.4022.40215.7212.87965.9389 1.40515.2176.5255.3296 1.0887.3296 1.6575v1.575h-.6562v-.6563c0-.5221-.2074-1.0228-.5766-1.3921-.3692-.3692-.87-.5766-1.3922-.5766h-6.5625c-.5221 0-1.0229.2074-1.3921.5766-.3692.3693-.5766.87-.5766 1.3921z"/><path d="m11.573 13.7812v3.9376c0 1.3923.5531 2.7277 1.5377 3.7123.9845.9845 2.3199 1.5377 3.7123 1.5377s2.7277-.5532 3.7123-1.5377c.9846-.9846 1.5377-2.32 1.5377-3.7123v-3.9376c0-.5221-.2074-1.0228-.5766-1.3921-.3692-.3692-.87-.5766-1.3922-.5766h-6.5625c-.5221 0-1.0229.2074-1.3921.5766-.3692.3693-.5766.87-.5766 1.3921zm5.25 7.875c-1.0443 0-2.0458-.4148-2.7842-1.1532-.7385-.7384-1.1533-1.74-1.1533-2.7842v-3.9376c0-.174.0691-.3409.1922-.464s.29-.1922.464-.1922h6.5625c.1741 0 .341.0691.4641.1922s.1922.29.1922.464v3.9376c0 1.0442-.4148 2.0458-1.1533 2.7842-.7384.7384-1.7399 1.1532-2.7842 1.1532zm16.3866-20.840474c.0242-.096764.0261-.197789.0054-.29538-.0206-.097592-.0633-.189182-.1247-.267824-.0613-.078641-.1398-.142256-.2295-.1860118-.0896-.0437558-.188-.06650758-.2878-.0665102h-14.4375c-.0998.00000262-.1982.0227544-.2878.0665102-.0897.0437558-.1682.1073708-.2295.1860118-.0614.078642-.1041.170232-.1247.267824-.0207.097591-.0188.198616.0054.29538l.4069 1.630774c.1067.42602.3527.80416.699 1.07431.3462.27016.7728.41682 1.212.41669h11.0749c.4389-.00016.8653-.14696 1.2112-.41709.346-.27013.5918-.64811.6985-1.07391zm-1.4773.496774-.2041.81573c-.0353.14202-.1172.2681-.2326.35814s-.2576.13886-.4039.13863h-11.0749c-.1463.00023-.2886-.04859-.4039-.13863-.1154-.09004-.1973-.21612-.2327-.35814l-.2047-.81573h12.7562zm-14.2531 38.0625h15.75c.1741 0 .341-.0691.4641-.1922.123-.1231.1922-.29.1922-.464 0-.1741-.0692-.341-.1922-.4641-.1231-.1231-.29-.1922-.4641-.1922h-15.75c-.174 0-.3409.0691-.464.1922s-.1922.29-.1922.4641c0 .174.0691.3409.1922.464s.29.1922.464.1922z"/><path d="m16.823 4.59375c-6.5198 0-11.8125 5.29331-11.8125 11.81245 0 6.5206 5.2927 11.8132 11.8125 11.8132s11.8125-5.2926 11.8125-11.8125c0-6.51983-5.2927-11.81249-11.8125-11.81249zm0 1.31316c5.7947 0 10.5 4.70469 10.5 10.49999 0 5.7947-4.7053 10.5-10.5 10.5-5.7953 0-10.5-4.7053-10.5-10.5 0-5.7953 4.7047-10.49999 10.5-10.49999z"/><path d="m16.8229 21.6562c-.9807.0013-1.9263-.3646-2.6506-1.0257-.1003-.0913-.2264-.1492-.3609-.1659-.1346-.0167-.271.0087-.3905.0727-.9257.4952-1.7325 1.1861-2.3642 2.0246s-1.07317 1.8046-1.29375 2.831c-.02707.1257-.01649.2566.03043.3764s.12809.223.23342.2969c1.9878 1.4039 4.3625 2.156 6.7961 2.1525 2.433.0035 4.8071-.7481 6.7948-2.1512.1052-.0741.1863-.1775.2332-.2973.0469-.1199.0576-.2508.0306-.3767-.2197-1.0268-.6609-1.9933-1.2928-2.832-.6319-.8386-1.4393-1.5293-2.3658-2.0236-.1195-.0637-.2558-.0889-.3902-.0721-.1345.0168-.2604.0748-.3605.166-.7241.6604-1.6693 1.0259-2.6493 1.0244zm-5.6694 3.5871c.4056-1.3779 1.2982-2.5613 2.5115-3.3299.9096.6864 2.0184 1.0569 3.1579 1.0553 1.139.002 2.2475-.3683 3.1565-1.0546 1.2137.7683 2.1063 1.9522 2.5109 3.3305-1.69 1.0876-3.6578 1.6645-5.6674 1.6616-2.0105.0031-3.9791-.5743-5.6694-1.6629zm5.6956 8.1289 3.005 3.1717c.0613.0647.1352.1163.2171.1515.0819.0353.1702.0534.2593.0534.0892 0 .1774-.0181.2594-.0534.0819-.0352.1558-.0868.2171-.1515l3.0056-3.1723c.4366-.4659.6789-1.0809.6773-1.7194 0-.6451-.2455-1.2633-.6773-1.7194h-.0013c-.2151-.2297-.475-.4131-.7635-.5388-.2886-.1257-.5998-.1911-.9145-.1922-.3147.001-.6259.0663-.9145.1919-.2885.1256-.5484.3088-.7636.5385l-.1247.1312-.1246-.1312c-.2152-.2297-.4751-.4129-.7636-.5385-.2886-.1256-.5998-.1909-.9145-.1919-.3148.0009-.6261.0662-.9148.1918-.2886.1256-.5486.3089-.7639.5386-.8997.9496-.8997 2.4904 0 3.44zm1.554-.269-.6004-.6333c-.2063-.2223-.3209-.5144-.3209-.8177s.1146-.5954.3209-.8177c.1922-.2034.4528-.3202.7251-.3202.2724 0 .5322.1174.7252.3202l.6011.6346c.0613.0647.1352.1163.2171.1516.0819.0352.1702.0534.2593.0534.0892 0 .1774-.0182.2594-.0534.0819-.0353.1558-.0869.2171-.1516l.6011-.6346c.1923-.2034.4528-.3202.7252-.3202.2723 0 .5322.1174.7251.3202l.0013.0013c.2048.2166.3177.5106.3177.8164 0 .3065-.1129.6005-.3177.8164l-2.5292 2.6696-1.9274-2.0344zm9.576 1.678v1.3125c.0002.1131.0296.2242.0853.3227.0557.0984.1359.1808.2328.2391.0969.0584.2072.0907.3202.0939.1131.0032.2251-.0228.3251-.0756l3.5746-1.8926h1.0402c.4351 0 .8524-.1729 1.1601-.4805.3076-.3077.4805-.725.4805-1.1601v-2.2969c0-.4351-.1729-.8524-.4805-1.1601-.3077-.3077-.725-.4805-1.1601-.4805h-5.9063c-.4351 0-.8524.1728-1.1601.4805s-.4805.725-.4805 1.1601v2.2969c0 .4351.1728.8524.4805 1.1601.3077.3076.725.4805 1.1601.4805zm1.3125-.6563c0-.174-.0691-.3409-.1922-.464s-.29-.1922-.464-.1922h-.9844c-.087 0-.1705-.0346-.232-.0961s-.0961-.145-.0961-.232v-2.2969c0-.087.0346-.1705.0961-.232.0615-.0616.145-.0961.232-.0961h5.9063c.087 0 .1704.0345.232.0961.0615.0615.0961.145.0961.232v2.2969c0 .087-.0346.1705-.0961.232-.0616.0615-.145.0961-.232.0961h-1.203c-.1069 0-.2126.0262-.3071.0761l-2.7556 1.4589z"/><path d="m12.8855 5.74153c.0002.10259.0245.20372.0708.29526s.1135.17095.196.23187c.0826.06093.1782.10167.2794.11896.1011.0173.2049.01067.303-.01936 1.0006-.30727 2.0416-.463 3.0883-.46201 5.7953 0 10.5 4.70465 10.5 10.49995 0 5.7954-4.7047 10.5-10.5 10.5-1.0467.001-2.0877-.1547-3.0883-.462-.0981-.0301-.2019-.0369-.3031-.0196-.1012.0172-.197.0579-.2795.1189-.0826.0609-.1498.1404-.1961.232s-.0704.1928-.0705.2955v10.3352c.0005 1.2182.4847 2.3864 1.3461 3.2478.8613.8613 2.0295 1.3455 3.2476 1.346h15.75c1.2184 0 2.3868-.484 3.2483-1.3455s1.3455-2.0299 1.3455-3.2483v-32.81245c-.0005-1.21818-.4847-2.38632-1.346-3.2477-.8614-.861387-2.0296-1.34552826-3.2478-1.34605h-15.75c-1.2183 0-2.3867.48399-3.2482 1.34548-.8615.8615-1.3455 2.02993-1.3455 3.24827zm1.3125-.85444v-.29334c0-.87019.3458-1.70494.9608-2.32051.6156-.61507 1.4502-.96061 2.3204-.96074h15.75c.8702 0 1.705.34584 2.3206.96074.615.61564.9606 1.45026.9607 2.32051v32.81245c-.0001.8703-.3457 1.7049-.9607 2.3206-.6157.615-1.4503.9606-2.3206.9607h-15.75c-.8702-.0001-1.7048-.3457-2.3204-.9607-.6151-.6157-.9607-1.4503-.9608-2.3206v-9.4808c.8446.1923 1.7233.2934 2.625.2934 6.5192 0 11.8125-5.2934 11.8125-11.8126 0-6.51914-5.2933-11.81245-11.8125-11.81245-.9017 0-1.7804.10106-2.625.29334z"/><path d="m12.8848 17.7516.0007-.0328c0-.1741-.0691-.341-.1922-.4641s-.29-.1922-.4641-.1922h-1.9687c-.1741 0-.34097.0691-.46404.1922s-.19221.29-.19221.4641v2.9531c0 .4351.17285.8524.48055 1.1601.3077.3076.725.4805 1.1601.4805h1.6393c.1417 0 .2802-.0459.3937-.1319.2416-.1811.4965-.3437.7626-.4863.0926-.0496.1719-.1207.2313-.2073s.0972-.1862.1101-.2904.0006-.2101-.0358-.3086c-.0365-.0984-.096-.1868-.1737-.2575-.4059-.3685-.7302-.8181-.9518-1.3196s-.3358-1.0439-.3351-1.5921zm-1.2711.6234c.1184.9506.4959 1.8503 1.0913 2.6007l-.0341.0243h-1.426c-.0871-.0001-.1705-.0346-.2323-.0958-.0613-.0618-.0957-.1453-.0959-.2323v-2.2969zm.6484-.0007-.0329.0007zm-.0329.0007-.6562-.6562c0-.1543.6503.649.6562.6562zm.065-.0033-.0092.0007zm.2993-.1069-.002.0013zm.0269-.0191-.0046.0033zm.0256-.0197-.0073.0053zm.0242-.021-.0078.0066zm.023-.0223-.0046.004.0046-.004.004-.0039zm.0289-.0308-.0066.0078zm.0197-.023-.0053.0066zm.0177-.0236-.0033.0046zm.0164-.0236-.0007.0013zm.107-.3026-.0007.0046zm8.5338.5959c-.0059-.0072-.6562-.8105-.6562-.6562l.6562.6562-.6562-.6562c.0006.5485-.1137 1.0912-.3356 1.5929-.2219.5018-.5464.9514-.9526 1.3201-.0781.0706-.138.159-.1746.2576-.0367.0987-.0491.2047-.036.3091.013.1045.0509.2042.1107.2909.0597.0866.1395.1576.2324.2069.2652.1411.5198.3032.7619.4849.1136.0852.2518.1313.3938.1313h1.6406c.4351 0 .8524-.1729 1.1601-.4805.3077-.3077.4805-.725.4805-1.1601v-2.9531c0-.1741-.0691-.341-.1922-.4641-.123-.1231-.29-.1922-.464-.1922h-1.9688zm.6156 0h.6969v2.2969c0 .0873-.0347.1706-.0958.2323-.0618.0612-.1453.0957-.2323.0958h-1.4273l-.0335-.0236c.5958-.7506.9736-1.6505 1.092-2.6014z"/></g></g></svg>