<svg fill="none" height="58" viewBox="0 0 61 58" width="61" xmlns="http://www.w3.org/2000/svg" xmlns:xlink="http://www.w3.org/1999/xlink"><clipPath id="a"><path d="m30.2085 14.5h30.2083v30.2083h-30.2083z"/></clipPath><clipPath id="b"><path d="m0 14.5h30.2083v30.2083h-30.2083z"/></clipPath><g clip-path="url(#a)"><path d="m53.9023 35.4702c-.1312-.0557-.2549-.1076-.3719-.1605l-.5249-.2379c-.9214-.42-2.3062-1.0525-3.6826-1.5859-.021-.013-.0431-.0241-.0661-.033-.3124-.0785-.5908-.2567-.7928-.5077-.2021-.2509-.3168-.5609-.3268-.8829v-.5579h3.3116c.1252 0 .2453-.0497.3338-.1382s.1382-.2086.1382-.3338v-9.9253c0-1.7526-.6962-3.4334-1.9354-4.6726-1.2393-1.2393-2.9201-1.9355-4.6727-1.9355-1.7525 0-3.4333.6962-4.6726 1.9355-1.2392 1.2392-1.9354 2.92-1.9354 4.6726v9.9253c0 .1252.0497.2453.1382.3338s.2086.1382.3338.1382h3.304l.001.557c-.0099.3223-.1247.6326-.3269.8837s-.4809.4294-.7937.5078c-.0259.0106-.0509.0236-.0746.0387-1.3707.5324-2.7489 1.1611-3.6665 1.5802l-.5249.2389c-.1161.0519-.2407.1038-.3719.1595-1.0903.4579-2.7386 1.1508-2.7386 3.102v5.6641c0 .1252.0497.2452.1383.3338.0885.0885.2085.1382.3337.1382h21.7123c.1251 0 .2452-.0497.3337-.1382.0885-.0886.1383-.2086.1383-.3338v-5.6641c0-1.9522-1.6483-2.6451-2.7386-3.1029zm-12.3656-9.6327v-3.7854c0-.2504.0995-.4905.2765-.6676.177-.177.4171-.2765.6675-.2765h.4173c.0094 0 .017.0057.0273.0057h3.3116c.1191.0006.2339-.0443.321-.1255l.6702-.6184.5249.5853c.0442.0498.0984.0896.1591.117.0607.0273.1265.0415.193.0416h.5117l.0141-.0028c.1223.0036.2383.0546.3237.1421s.1335.2048.1342.327v4.2585c0 1.0014-.3978 1.9619-1.106 2.67-.7081.7082-1.6686 1.106-2.6701 1.106-1.0014 0-1.9619-.3978-2.67-1.106-.7082-.7081-1.106-1.6686-1.106-2.67zm-1.888 4.722v-9.4524c0-1.5022.5967-2.9429 1.6589-4.0051 1.0623-1.0622 2.5029-1.659 4.0051-1.659s2.9429.5968 4.0051 1.659c1.0623 1.0622 1.659 2.5029 1.659 4.0051v9.4533h-2.8386l.0009-.8581c-.003-.0314-.0093-.0624-.0189-.0925.5912-.4356 1.0721-1.0036 1.4043-1.6585.3321-.6549.5062-1.3785.5083-2.1128v-4.2585c-.0005-.3754-.1499-.7352-.4153-1.0007-.2654-.2654-.6253-.4148-1.0007-.4153-.0095 0-.018.0048-.0283.0057h-.2719l-.7033-.7864c-.0417-.0469-.0925-.085-.1493-.1119-.0567-.0269-.1183-.0422-.1811-.0448-.0627-.006-.1259.0021-.185.0236-.0591.0216-.1127.0561-.1567.101l-.8874.8185h-2.6017c-.0085 0-.0179-.0057-.0274-.0057h-.944c-.5005.0008-.9803.1999-1.3342.5538-.3539.354-.5531.8337-.5538 1.3343v3.7854c.0019.7334.1753 1.4561.5064 2.1105.3311.6543.8107 1.2221 1.4005 1.658-.0102.0316-.0168.0642-.0198.0973v.8571h-2.8311zm3.777 1.5009-.0019-1.9031c.5937.2634 1.2359.3997 1.8853.4002.6495.0005 1.2919-.1349 1.886-.3973l-.0019 1.9012c.0005.4096.1111.8116.3204 1.1637s.5095.6414.8691.8376l-3.0728 3.3069-3.1029-3.2861c.3678-.1944.6756-.4854.8904-.8417.2147-.3563.3282-.7644.3283-1.1804zm-8.4971 6.5137c0-1.2272.9365-1.7181 2.1599-2.2326.1388-.0585.271-.1132.3937-.1689l.5305-.2408c.8345-.3813 2.0551-.9345 3.2918-1.4273l3.5362 3.7449v5.5168h-9.9121zm20.7683 5.1921h-9.9122v-5.5187l3.4948-3.76c1.1228.4539 2.2343.9355 3.3333 1.4443l.5305.2408c.1227.0557.2549.1104.3937.1689 1.2234.5126 2.1599 1.0035 2.1599 2.2307v5.1921z" fill="#005789"/></g><g clip-path="url(#b)"><path d="m23.6947 30.1517-5.8151-1.0195v-.7741c.6405-.5075 1.0708-1.2336 1.2084-2.0391.1321-.859.3115-2.039.4625-3.1718.1807-.2497.3387-.5151.472-.793.9441-1.9447 1.0196-4.9749-.7457-6.778-.4981-.4414-1.0903-.7634-1.7315-.9417s-1.3146-.2082-1.969-.0873c-1.4718.2189-2.8611.8176-4.031 1.737l-.1699.1038c-.2745.2466-.5954.436-.944.557-.4162.0957-.85339.0245-1.21778-.1982-.17368-.0964-.33263-.2172-.472-.3588-.05535-.0556-.1237-.0966-.19886-.1192-.07517-.0225-.15478-.026-.23164-.0101-.07685.0159-.14851.0508-.20851.1014-.05999.0506-.10642.1154-.13508.1884-.37864.9852-.44456 2.063-.1888 3.0869 0 .1133.74577 2.8321 2.88867 3.2758h.2077l.3776 3.219c.0852.7852.4466 1.5145 1.0195 2.058v.944l-5.66405 1.0006c-.7833.1111-1.50049.5003-2.02047 1.0966-.51999.5962-.80806 1.3597-.81156 2.1508v11.3282h22.65628v-11.3282c-.0044-.774-.2812-1.5217-.7817-2.112-.5006-.5904-1.1931-.9856-1.956-1.1165zm-12.8291-8.0996c-1.57646-.3398-2.17118-2.5583-2.17118-2.5866-.15056-.6203-.15056-1.2677 0-1.888.05025.0367.10401.0683.16048.0944.57368.323 1.2492.4142 1.888.2549.4532-.1603.8726-.4036 1.2367-.7175l.1605-.1227c1.0365-.8203 2.2702-1.3541 3.5778-1.5482.5101-.1053 1.0376-.092 1.5417.0389.5042.131.9714.3761 1.3658.7163 1.416 1.4349 1.4066 4.0215.5759 5.6641l-.0756.0944c-.5208-.604-1.1644-1.09-1.888-1.4254-.5521-.3147-1.1688-.4987-1.803-.5381-.2005.0024-.4001.0278-.5948.0755-.434.1186-.8222.3653-1.1139.708-.2261.251-.4905.4645-.7835.6325-.5971.4409-1.3401.6368-2.0769.5475zm1.3217 4.0781-.3588-3.1435c.571-.1046 1.118-.3125 1.6143-.6136.3529-.2151.6712-.4825.944-.793.1751-.238.4296-.4054.7174-.472.6195-.0739 1.2457.066 1.7748.3965.6937.3532 1.2951.864 1.7558 1.4915-.1604 1.1423-.3398 2.3412-.4814 3.2191-.0657.3357-.2036.653-.404.9301-.2005.2771-.4589.5073-.7571.6747l-1.114.6608c-.2167.1251-.4625.191-.7127.191s-.496-.0659-.7127-.191l-1.1234-.6325c-.3125-.1876-.5778-.4442-.7758-.7502-.198-.3059-.3234-.6532-.3664-1.0151zm2.9169 4.89c-.2757 0-.5452.0822-.774.236l-1.1706-.3398v-2.0957l.8685.4909c.3526.2047.7533.3123 1.1611.3115.4248-.0025.8414-.1164 1.2083-.3304l.5381-.321v1.9824l-1.0573.3021c-.2288-.1538-.4983-.236-.7741-.236zm.4721 1.416c0 .0934-.0277.1846-.0796.2623-.0519.0776-.1256.1381-.2118.1738-.0863.0357-.1812.0451-.2727.0269-.0916-.0182-.1757-.0632-.2417-.1292s-.111-.1501-.1292-.2417c-.0182-.0915-.0089-.1865.0269-.2727.0357-.0862.0962-.16.1738-.2118.0776-.0519.1689-.0796.2622-.0796.1252 0 .2453.0498.3338.1383s.1383.2085.1383.3337zm-1.8314.3682-1.4727.4248v-1.5859l1.4727.4248c-.0754.2396-.0754.4966 0 .7363zm2.7187-.7363 1.4727-.4248v1.5859l-1.4727-.4248c.0754-.2397.0754-.4967 0-.7363zm-7.96742 11.6963v-4.7201h-.94402v4.7201h-2.83203v-10.3842c-.00126-.5556.19431-1.0936.55203-1.5187.35771-.4252.85445-.7098 1.40208-.8035l2.36002-.406.47201 4.3614.82133.7174-.81189.7741 1.40659 7.2595zm3.38902 0-1.3405-6.9196 1.18-1.114-1.3405-1.1705-.42481-4.0121 2.25621-.387v.538l-.8874-.302v4.0781l.944-.2738 2.2373 9.5629zm1.331-9.8272 1.114-.321c.2288.1539.4983.236.774.236.2758 0 .5453-.0821.7741-.236l1.114.321-1.8881 8.194zm2.4828 9.8272 2.2373-9.5629.944.2738v-4.0781l-1.0007.2832v-.5853l2.3695.4059-.4248 4.0593-1.3216 1.1705 1.18 1.114-1.3594 6.9196zm9.7894 0h-2.8321v-4.7201h-.944v4.7201h-2.4261l1.4066-7.2406-.8119-.7741.8213-.7174.472-4.3614 2.3601.406c.5444.0931 1.0386.375 1.396.7962.3573.4212.5549.9548.5581 1.5071z" fill="#005789"/></g></svg>