<svg fill="none" height="39" viewBox="0 0 40 39" width="40" xmlns="http://www.w3.org/2000/svg" xmlns:xlink="http://www.w3.org/1999/xlink"><clipPath id="a"><path d="m.416748 0h39v39h-39z"/></clipPath><g clip-path="url(#a)"><path d="m34.8538 4.48501c-.195-.156-.429-.195-.663-.156l-18.72 3.9c-.351.078-.624.39-.624.78v15.91199c-1.053-1.17-2.574-1.872-4.29-1.872-3.23701 0-5.85001 2.613-5.85001 5.85s2.613 5.85 5.85001 5.85c3.237 0 5.85-2.613 5.85-5.85v-13.845l17.16-3.588v9.516c-1.053-1.17-2.613-1.872-4.29-1.872-3.237 0-5.85 2.613-5.85 5.85s2.613 5.85 5.85 5.85 5.85-2.613 5.85-5.85v-19.88999c0-.234-.117-.468-.273-.585zm-24.297 28.66499c-2.37901 0-4.29001-1.911-4.29001-4.29s1.911-4.29 4.29001-4.29c2.379 0 4.29 1.911 4.29 4.29s-1.911 4.29-4.29 4.29zm18.72-3.9c-2.379 0-4.29-1.911-4.29-4.29s1.911-4.29 4.29-4.29 4.29 1.911 4.29 4.29-1.911 4.29-4.29 4.29zm4.29-19.34399-17.16 3.58799v-3.86099l17.16-3.588z" fill="#8dc943"/><path d="m259.377-253.5v656.76h-695.76v-656.76zm3.12-3.12h-702v663h702z" fill="#00f"/></g></svg>