<svg fill="none" height="43" viewBox="0 0 44 43" width="44" xmlns="http://www.w3.org/2000/svg" xmlns:xlink="http://www.w3.org/1999/xlink"><clipPath id="a"><path d="m0 0h21.8507v21.8507h-21.8507z" transform="matrix(.96592583 .25881905 -.25881905 .96592583 5.9519 15.5525)"/></clipPath><clipPath id="b"><path d="m0 0h19.7394v19.7394h-19.7394z" transform="matrix(.96592583 -.25881905 .25881905 .96592583 18.9685 7.32275)"/></clipPath><g fill="#57003d"><g clip-path="url(#a)"><path d="m18.3848 37.0871-12.86153-3.4462c-.7585-.2032-1.21719-.9977-1.01395-1.7562l2.21796-8.2776c.20324-.7585.99772-1.2172 1.75623-1.0139l2.77019.7422c.0659.0177.2573-.037.308-.0942l.7686-.8897c.2951-.3098.8363-.4829 1.265-.368l3.6606.9808c.4287.1149.8109.5354.9116.9512l.2207 1.1549c.0153.0748.1207.2091.2197.2356l2.7701.7422c.7585.2033 1.2172.9978 1.014 1.7563l-2.218 8.2775c-.2362.7497-1.0307 1.2084-1.7892 1.0051zm-10.15755-13.5376c-.26383-.0707-.51472.0742-.58541.338l-2.21797 8.2776c-.07069.2638.07416.5147.33799.5854l12.86154 3.4462c.2638.0707.5147-.0741.5854-.338l2.218-8.2775c.0707-.2638-.0742-.5147-.338-.5854l-2.7702-.7423c-.4287-.1149-.8109-.5354-.9115-.9512l-.2208-1.1548c-.0153-.0748-.1207-.2091-.2196-.2356l-3.6606-.9809c-.066-.0176-.2574.0371-.308.0942l-.7686.8898c-.2951.3097-.8363.4828-1.2651.368z"/><path d="m12.4489 33.5172c-2.2755-.6097-3.6274-2.9514-3.01769-5.2269.60969-2.2755 2.95139-3.6274 5.22689-3.0177s3.6274 2.9514 3.0177 5.2269-2.9514 3.6274-5.2269 3.0177zm1.9706-7.3542c-1.7808-.4771-3.6207.5851-4.0979 2.3659-.47714 1.7809.5851 3.6207 2.3659 4.0979 1.7809.4772 3.6207-.5851 4.0979-2.3659s-.5851-3.6207-2.3659-4.0979zm5.0457 1.352c-.0707.2638-.3216.4087-.5854.338-.2639-.0707-.4087-.3216-.338-.5854s.3216-.4087.5854-.338.3998.3546.338.5854zm-10.28136-5.6886 1.84676.4949-.1237.4617-1.84677-.4949z"/><path d="m14.0483 27.5481.1237-.4616c-1.2532-.3358-2.5824.4037-2.927 1.6899l.4617.1237c.2739-1.0223 1.3193-1.6259 2.3416-1.352z"/></g><g clip-path="url(#b)"><path d="m25.3982 13.4592c1.8134-.4859 2.8933-2.3559 2.4075-4.16909-.4859-1.8132-2.3561-2.89299-4.1696-2.40708-1.8129.48578-2.8927 2.35603-2.4069 4.16927.4859 1.8132 2.3558 2.8928 4.169 2.4069zm-1.4783-5.5169c1.2293-.32939 2.4972.40263 2.8265 1.63164.3293 1.22896-.4028 2.49666-1.632 2.82596-1.2291.3294-2.4966-.4025-2.8259-1.6315-.3294-1.22924.4024-2.49679 1.6314-2.8261z"/><path d="m23.3241 10.4911-.0202-.0703c-.0092-.0299-.0092-.0299-.0119-.0664-.0053-.0725-.0392-.1399-.0942-.1875-.055-.0475-.1266-.0714-.1991-.0662-.0724.0056-.1397.0396-.1872.0945s-.0714.1264-.0666.1988c.003.0633.0145.1259.034.1862l.0153.0527c.0206.0682.0669.1258.1292.1605.0622.0347.1356.0438.2044.0253.0689-.0184.1279-.0629.1645-.124.0367-.0611.0481-.1342.0318-.2036z"/><path d="m23.1586 9.94961c.0436-.01159.0837-.03378.1166-.0646.033-.03081.0578-.06929.0723-.11201.0652-.19226.177-.36544.3252-.50418s.3284-.23876.5246-.29119c.0702-.01882.1301-.06477.1665-.12774.0363-.06297.0462-.1378.0273-.20803-.0188-.07024-.0647-.13012-.1277-.16647-.063-.03636-.1378-.04621-.208-.02739-.2832.07568-.5434.22007-.7574.42035-.214.20029-.3753.45029-.4696.72784-.016.047-.0189.09745-.0084.14598.0104.04852.0338.0933.0677.12957s.077.06266.1247.07637c.0477.01372.0983.01424.1462.0015z"/><path d="m32.8127 11.4724c1.8138-.486 2.8934-2.35591 2.4075-4.16911-.4858-1.8132-2.3558-2.89306-4.1695-2.40707-1.813.48577-2.8928 2.35603-2.4069 4.16923.4861 1.81315 2.3563 2.89265 4.1689 2.40695zm-1.4782-5.51692c1.2295-.32945 2.4971.40263 2.8265 1.63164.3293 1.22901-.4026 2.49658-1.6321 2.82598-1.229.3293-2.4966-.4025-2.8259-1.63148-.3291-1.22935.4027-2.4969 1.6315-2.82614z"/><path d="m30.5734 7.96286c.0436-.0116.0837-.03379.1166-.0646.033-.03082.0578-.0693.0722-.11202.0653-.19222.177-.36538.3252-.50411s.3283-.23875.5244-.29119c.1467-.03931.2331-.18933.1939-.33577-.0393-.14644-.1891-.23317-.3358-.19386-.2832.07567-.5433.22005-.7573.42033-.214.20027-.3752.45026-.4695.72779-.016.04701-.019.0975-.0086.14607.0105.04857.0339.0934.0678.12969.0339.0363.0771.06269.1248.07637.0478.01368.0983.01413.1463.0013z"/><path d="m39.4813 10.9435c-.221-.131-.4628-.1681-.7263-.0975-.2142.0574-.4297.1768-.6738.3875-.7987.7464-1.6009 1.489-2.4066 2.2278l-.0402-.2021c-.0025-.0133-.0124-.0524-.0159-.0656-.2761-1.0304-1.3387-1.7019-2.3509-1.4307l-9.8347 2.6352c-.9952.2667-1.605 1.4791-1.3287 2.51l1.8547 6.9218c.2657.9917 1.2829 1.4364 2.3122 1.1606l9.8348-2.6352c1.0211-.2736 1.6267-1.2156 1.372-2.2179.0001.0011.0004.0024-.0004.0006l-.1456-.4332c.7982.1642 2.0432.438 3.1999.7002.033.0076.0631.0138.0973.0154.2983.0109.5335.0103.7454-.0451.3766-.104.5562-.35.6262-.5336.0831-.2173.0656-.4649-.0197-.7835l-1.9167-7.1532c-.0566-.2111-.1626-.7148-.583-.9615zm1.4689 8.3787c-.0786.0023-.1641-.0011-.2238-.0033-4.0648-.9209-4.1896-.8909-4.3469-.8488-.1459.0391-.2711.13-.3429.2634-.0715.1326-.0884.276-.0407.4193l.4213 1.2597c.1022.4123-.1651.7683-.5954.8836l-9.8345 2.6351c-.4497.1205-.8591.0259-.9692-.3851l-1.8547-6.9218c-.1202-.4486.1397-1.0561.5533-1.1669v-.0003l9.8347-2.6352c.4155-.1113.8784.2097 1.003.6386l.2289 1.1646c.0289.1492.1186.2804.2472.3612.1292.0806.2862.1041.4332.0647.1726-.0462.2186-.0591 3.3518-2.9953.0629-.0543.1123-.0891.1489-.1114.0191.0457.042.1142.0683.2187z"/><path d="m37.4785 20.1396-.004-.0183c.0017.0062.0024.0124.004.0183z"/><path d="m41.3846 20.3736-.009.0018-.009.003z"/><path d="m37.4744 20.1217-.0016-.0065z"/><path d="m26.7896 15.2013-2.2493.6028c-.5315.1424-.7844.9126-.6531 1.4025l.3606 1.3458c.0189.0702.0649.1301.1278.1664.063.0363.1379.0462.2081.0273s.1301-.0648.1664-.1278.0461-.1378.0273-.2081l-.3606-1.3458c-.0661-.2465.0719-.6786.2655-.7304l2.2493-.6028c.0703-.0188.1302-.0648.1666-.1278.0363-.063.0462-.1378.0274-.2081-.0189-.0703-.0648-.1302-.1278-.1665-.063-.0364-.1379-.0463-.2082-.0275z"/><path d="m28.1139 14.8469-.2649.0709c-.0702.0188-.1301.0648-.1664.1277-.0364.063-.0462.1379-.0274.2081s.0648.1301.1277.1665c.063.0363.1378.0462.2081.0273l.2648-.0709c.0702-.0188.1301-.0648.1664-.1278.0364-.0629.0463-.1378.0274-.208-.0188-.0702-.0647-.1301-.1277-.1665-.063-.0363-.1378-.0462-.208-.0273z"/></g><circle cx="11.6345" cy="10.8838" r=".666925"/><circle cx="30.1921" cy="28.5001" r=".666925" transform="matrix(.70710678 .70710678 -.70710678 .70710678 28.995675 -13.001553)"/><circle cx="14.3012" cy="14.8856" r=".666925"/><circle cx="29.2505" cy="33.216" r=".666925" transform="matrix(.70710678 .70710678 -.70710678 .70710678 32.054532 -10.954486)"/><circle cx="15.6354" cy="10.8838" r=".666925"/><circle cx="33.0222" cy="31.3296" r=".666925" transform="matrix(.70710678 .70710678 -.70710678 .70710678 31.825351 -14.173994)"/></g></svg>