<svg fill="none" height="40" viewBox="0 0 41 40" width="41" xmlns="http://www.w3.org/2000/svg"><g fill="#f74924"><path d="m6.57148 36.5385c-.20402 0-.39967-.0811-.54393-.2253-.14426-.1443-.2253-.3399-.2253-.544v-31.53842c0-.20401.08104-.39967.2253-.54393s.33991-.2253.54393-.2253c.20401 0 .39967.08104.54393.2253.14425.14426.2253.33992.2253.54393v31.53842c0 .2041-.08105.3997-.2253.544-.14426.1442-.33992.2253-.54393.2253z"/><path d="m38.8784 9.93073c0 .42307-.3462.76927-.7692.76927h-35.38465c-.42307 0-.76923-.3462-.76923-.76927 0-.43077.34616-.76923.76923-.76923h35.38465c.423 0 .7692.33846.7692.76923z"/><path d="m19.1167 10.4231-.2308.2769-2.5615 3.0769-.8923 1.0769c-.1538.177-.3769.277-.5923.277-.1769 0-.3539-.0616-.4923-.177-.0786-.064-.1436-.1432-.1913-.2327s-.077-.1876-.0863-.2886.0016-.2028.0321-.2995.0799-.1864.1455-.2638l.0769-.0923 2.5615-3.0769 1.0462-1.26154c.1385-.16154.3231-.26154.5154-.27692h.2077c.1307.03077.2538.08461.3615.17692.0779.06458.1423.14388.1895.23338s.0763.18743.0855.28818c.0093.10075-.0013.20238-.0314.29898-.03.0966-.0788.1863-.1436.2641zm13.0385 4.7538c-.1385.0923-.2923.1385-.4462.1385-.2384 0-.4769-.1154-.6307-.3308l-.8462-1.2077-2.1462-3.0769-.2307-.3308c-.0817-.1149-.1301-.2501-.1397-.39082-.0097-.14067.0198-.28126.0851-.40625.0652-.12498.1638-.22947.2848-.30194.1209-.07246.2596-.11006.4005-.10865.2385 0 .477.10769.6231.32307l.8539 1.21539 2.1538 3.0769.2231.3231c.2461.3462.1615.8308-.1846 1.0769z"/><path d="m33.5399 13.777h-20.0923c-1.2462 0-2.2616 1.0154-2.2616 2.2615v11.6308c0 1.2461 1.0154 2.2615 2.2616 2.2615h20.0923c1.2461 0 2.2615-1.0154 2.2615-2.2615v-11.6308c0-1.2461-1.0154-2.2615-2.2615-2.2615zm.7231 13.8923c0 .3923-.3231.7231-.7231.7231h-20.0923c-.4 0-.7231-.3308-.7231-.7231v-11.6308c0-.4.3231-.7231.7231-.7231h20.0923c.4 0 .7231.3231.7231.7231z"/><path d="m18.1936 23.4539c-.1385-.5846-.4077-.9923-.8462-1.1385v-.023c.6077-.2077 1.0846-.7 1.0846-1.4462 0-.4385-.1615-.8231-.4538-1.0769-.3616-.3154-.8769-.4616-1.6693-.4616-.5153 0-1.0538.0462-1.4307.1154v5.5846h.7461v-2.4538h.7c.677.0308.9846.3231 1.1539 1.1.1615.7077.2923 1.1923.3846 1.3538h.7769c-.1231-.2153-.2615-.7615-.4461-1.5538zm-1.8077-1.4539h-.7616v-2.0615c.1154-.0308.377-.0692.7308-.0692.7923.0077 1.3308.3307 1.3308 1.0615 0 .6462-.5077 1.0692-1.3 1.0692z"/><path d="m20.2322 24.3923v-2.0384h2.2462v-.6h-2.2462v-1.7923h2.377v-.6077h-3.1231v5.6538h3.2461v-.6154zm7.1077-5.0384v2.3615c0 .8846.0154 1.5693.0846 2.3308l-.023.0077c-.2693-.5846-.6077-1.1769-1.0308-1.8385l-1.8538-2.8615h-.8154v5.6538h.7077v-2.4154c0-.9384-.0231-1.623-.0616-2.3384l.0231-.0077c.2923.6154.6769 1.2615 1.0846 1.8923l1.8308 2.8692h.7538v-5.6538zm1.3462 0v.6154h1.7538v5.0384h.7539v-5.0384h1.7615v-.6154z"/></g></svg>