<svg fill="none" height="44" viewBox="0 0 40 44" width="40" xmlns="http://www.w3.org/2000/svg"><g fill="#e60513"><path d="m5.1555 24.2596c-.05175-.1756-.10043-.3525-.14603-.5305-.03755-.1468-.13187-.2726-.26221-.3498-.13034-.0773-.28602-.0996-.4328-.062-.14678.0375-.27264.1318-.34988.2622-.07724.1303-.09954.286-.06199.4328.04895.1915.10126.3816.15691.5703.04538.1436.14462.2641.2769.3361.13228.0721.28732.0901.43261.0504.14532-.0429.26768-.1417.34016-.2748.07247-.133.08914-.2894.04633-.4347z"/><path d="m4.43371 15.9601c.07203.021.14751.0276.22211.0195.0746-.0082.14685-.031.21262-.0671.06578-.0362.12378-.0849.17069-.1435s.08181-.1258.10269-.1979c.05133-.1766.10573-.3518.16319-.5257.02366-.0713.03304-.1465.0276-.2214s-.0256-.148-.05932-.2151-.08034-.1269-.13719-.1759c-.05685-.0491-.12281-.0865-.19412-.11-.07131-.0236-.14656-.0328-.22145-.0272-.07489.0055-.14794.0258-.21498.0596-.06705.0339-.12676.0806-.17573.1375-.04897.057-.08623.123-.10965.1943-.06179.1868-.12028.375-.17546.5648-.02096.072-.02752.1475-.01931.222.00821.0746.03103.1468.06715.2126s.08484.1237.14338.1707c.05853.0469.12574.0818.19778.1028zm1.49307 10.3575c-.07615-.1662-.14947-.3338-.21995-.5028-.05888-.139-.17035-.249-.31006-.306-.13971-.0571-.29632-.0565-.43562.0015s-.24999.1688-.30789.3082c-.0579.1393-.05831.2959-.00114.4356.07573.1817.15454.3618.23641.5402.03126.0682.07566.1296.13067.1807.055.0511.11953.0908.1899.1169.07037.0262.1452.0381.2202.0353.07501-.0028.14873-.0204.21694-.0517s.12958-.0758.1806-.1308c.05103-.0551.0907-.1196.11675-.19.02606-.0704.03798-.1452.0351-.2202-.00288-.0751-.02052-.1488-.0519-.2169z"/><path d="m5.15078 13.7922c.06827.0311.14201.0485.21701.0511.07499.0026.14976-.0096.22004-.0359s.13468-.0662.18952-.1175c.05484-.0512.09904-.1127.13008-.181.0763-.1675.15542-.3334.23739-.4975.06773-.1356.07885-.2925.0309-.4362-.04794-.1437-.15102-.2625-.28656-.3302-.13553-.0678-.29242-.0789-.43616-.031-.14373.048-.26253.1511-.33026.2866-.08815.1766-.17323.3549-.25524.5349-.03108.0683-.04841.142-.051.217-.00258.075.00962.1497.03593.22.0263.0703.06619.1347.11738.1895s.11268.0991.18097.1302zm4.30254 17.398c-.05491-.0512-.11937-.091-.1897-.1173-.07032-.0262-.14513-.0383-.22015-.0357-.07501.0027-.14876.0202-.21703.0514s-.12972.0755-.18084.1305-.0909.1195-.11708.1898c-.02617.0704-.03822.1452-.03546.2202s.02028.1487.05155.217c.03128.0682.0757.1296.13072.1807.14436.1344.29113.2661.44032.395.11461.0988.26373.1481.41464.137.1509-.011.29126-.0815.39027-.1959.09904-.1144.14854-.2634.13784-.4144-.0107-.1509-.08093-.2914-.19516-.3906-.13878-.1201-.27542-.2427-.40992-.3677z"/><path d="m7.95223 29.5815c-.04713-.0585-.10533-.1071-.17128-.143-.06594-.036-.13833-.0586-.21302-.0666-.07469-.0079-.15021-.0011-.22226.0202-.07204.0212-.13918.0565-.19758.1037-.05841.0472-.10692.1055-.14277.1715-.03586.066-.05834.1385-.06617.2132s-.00086.1502.02053.2222c.02138.072.05676.1391.10409.1974.12386.1531.25036.304.37951.4526.1004.1127.24087.1817.39143.1923s.29929-.0381.41447-.1357c.05664-.0492.10304-.109.13654-.1762.03351-.0671.05346-.1401.05872-.215.00526-.0748-.00428-.15-.02807-.2211-.02379-.0712-.06136-.1369-.11057-.1936-.12023-.1385-.23808-.2791-.35357-.4219zm1.50285-21.18745c.13786.00014.27108-.04977.37491-.14045.13822-.12037.27871-.23837.42141-.35399.1174-.0955.1921-.23368.2077-.38421.0156-.15054-.0291-.30112-.1244-.4187-.0953-.11757-.2334-.19253-.38386-.20841-.15051-.01589-.30117.0286-.4189.1237-.15301.12399-.30378.25063-.45232.37993-.08777.07642-.1501.17782-.17866.29064-.02856.11281-.02198.23166.01885.34064.04083.10897.11397.20288.20962.26916.09566.06627.20928.10175.32565.10169z"/><path d="m6.98414 28.2448c-.09931-.1537-.19592-.3094-.28983-.467-.03843-.0644-.08918-.1206-.14934-.1655-.06016-.0448-.12856-.0773-.20129-.0957-.07274-.0184-.14839-.0223-.22262-.0115-.07424.0109-.14561.0362-.21005.0747-.06444.0384-.12067.0891-.1655.1493s-.07736.1286-.09575.2013c-.0184.0727-.02228.1484-.01144.2226.01085.0743.03621.1456.07463.2101.10098.1693.20475.3365.31131.5015.0822.1273.21159.2167.35971.2486.14813.0319.30286.0036.43014-.0786.12729-.0821.21671-.2115.2486-.3597.03188-.1481.00362-.3028-.07858-.4301z"/><path d="m33.9673 13.4362c.0766.1661.1503.3337.2213.5028.0289.0693.0712.1323.1245.1853.0533.0529.1165.0949.186.1234s.1439.043.219.0427.1495-.0154.2187-.0444c.0693-.0291.1322-.0715.185-.1249.0529-.0534.0947-.1166.123-.1862.0284-.0695.0428-.144.0423-.2191-.0004-.0751-.0157-.1494-.0449-.2186-.076-.1815-.1551-.3613-.2372-.5394-.0635-.1376-.179-.2444-.3211-.2968-.1422-.0525-.2994-.0463-.437.0172-.1376.0634-.2443.1789-.2968.3211-.0524.1421-.0462.2993.0172.4369zm-27.79682-1.6878c.06313.0405.13363.0682.20746.0815.07384.0133.14957.0119.22287-.0041.07329-.016.14272-.0463.20431-.0891.0616-.0428.11415-.0974.15465-.1605.09945-.1549.20145-.3078.30601-.4589.04303-.0617.07346-.1313.08954-.2047.01608-.0735.0175-.1494.00418-.2234-.01333-.074-.04113-.1447-.08183-.2079-.04069-.0633-.09347-.1179-.15531-.1606-.06183-.0428-.13151-.073-.20504-.0888-.07352-.0158-.14944-.017-.2234-.0034s-.14451.0417-.2076.0826c-.06309.041-.11748.094-.16005.1559-.11214.1621-.22149.3261-.32806.4921-.04052.0632-.06821.1337-.08148.2075-.01328.0738-.01188.1496.00412.2228.016.0733.04628.1428.08911.2044.04283.0615.09738.1141.16052.1546z"/><path d="m32.9059 11.5111c.0994.1537.1964.3092.2908.4666.078.1298.2042.2233.3511.2601.1469.0367.3023.0136.4322-.0642s.2236-.204.2605-.3508.014-.3023-.0636-.4322c-.1012-.169-.2053-.3359-.3123-.5008-.0407-.063-.0935-.1173-.1553-.1599s-.1313-.0727-.2047-.0884-.1492-.0168-.223-.0032-.1442.0416-.2072.0824-.1173.0936-.1598.1555c-.0426.0618-.0726.1314-.0882.2048-.0157.0734-.0167.1491-.0031.2229.0137.0738.0417.1442.0826.2072zm2.222 3.2714c-.1453.0431-.2675.1421-.3397.2753s-.0886.2896-.0456.4349c.0521.1754.1011.3522.1472.5304.0317.1225.1032.2311.2032.3086.1.0776.223.1197.3495.1199.0484-.0001.0966-.0062.1434-.0183.1467-.038.2723-.1326.3492-.2631.077-.1306.0989-.2863.061-.433-.0494-.1911-.102-.3809-.158-.5695-.0432-.1452-.1422-.2674-.2754-.3396s-.2896-.0886-.4348-.0456zm-27.28371-4.7722c.08211.0001.16328-.0175.23796-.05166.07467-.03416.14108-.08405.19469-.14626.11995-.13877.24232-.27541.3671-.40991.05107-.05497.09081-.11946.11695-.18978.02614-.07033.03818-.14511.03542-.22009s-.02026-.14867-.0515-.21689c-.03124-.06821-.07561-.1296-.13058-.18067-.05496-.05106-.11945-.0908-.18977-.11695-.07033-.02614-.14511-.03818-.22009-.03542s-.14868.02026-.21689.0515-.1296.07561-.18067.13058c-.13431.14463-.26589.2916-.39472.44088-.0715.08281-.11773.18441-.13317.29273-.01545.10831.00053.21879.04604.31828.04551.0995.11864.18383.21068.24298.09205.05915.19914.09058.30855.09068zm22.58681-1.43939c.055.05101.1196.09069.1899.11676.0704.02607.1452.03803.2202.03519.0749-.00283.1486-.02041.2168-.05172s.1295-.07575.1805-.13077c.0511-.05502.0907-.11955.1168-.18991.0261-.07035.038-.14515.0352-.22013s-.0204-.14866-.0517-.21684c-.0313-.06819-.0758-.12954-.1308-.18055-.1448-.13403-.2919-.26547-.4413-.39429-.0568-.04908-.1228-.08647-.194-.11005-.0713-.02357-.1466-.03287-.2214-.02735-.0749.00552-.148.02574-.215.05952-.0671.03377-.1268.08042-.1758.1373-.049.05687-.0864.12285-.1099.19416s-.0327.14655-.0271.22142.0259.1479.0598.21492c.0338.06702.0806.12671.1375.17566.139.11981.2758.24204.4103.36668z"/><path d="m31.9359 10.1763c.0473.0583.1056.1066.1716.1423.066.0358.1383.0581.213.0659.0746.0077.15.0007.2219-.0207s.1389-.0568.1972-.1041c.0582-.0473.1066-.1056.1423-.1715.0357-.066.0581-.1384.0658-.21303.0078-.07462.0007-.15005-.0207-.22196-.0214-.0719-.0567-.1389-.104-.19714-.1243-.15301-.2511-.30364-.3805-.45189-.0493-.05672-.1092-.10317-.1765-.13668-.0672-.03351-.1404-.05343-.2154-.05861-.0749-.00518-.1502.00447-.2214.0284-.0712.02394-.137.06169-.1936.11108-.0566.0494-.1029.10948-.1363.1768-.0333.06732-.0531.14056-.0581.21552s.0048.15018.0289.22134.062.13687.1116.19336c.1205.13808.2385.27841.3542.42091zm-20.3106 22.7004c-.1545-.0993-.3072-.2014-.458-.3062-.1245-.0864-.2781-.1199-.4273-.093-.1491.0268-.2814.1118-.3679.2363-.0864.1244-.1199.2781-.093.4272.0268.1491.1118.2815.2363.3679.1619.1126.326.2222.4923.329.1283.079.2822.1052.4293.0731.1472-.032.2763-.1198.3602-.2449.0819-.1275.1098-.2822.0775-.4303-.0322-.148-.1219-.2772-.2494-.3591zm16.6308-25.98796c.155.09931.308.20117.459.30559.0618.04283.1313.07307.2047.08898.0735.01592.1493.0172.2232.00377s.1445-.0413.2076-.08202c.0631-.04073.1176-.0935.1603-.1553s.0728-.13142.0886-.20487c.0158-.07344.0169-.14928.0033-.22317-.0135-.07389-.0415-.14438-.0824-.20743-.0408-.06305-.0937-.11743-.1556-.16002-.1622-.112-.3264-.22121-.4925-.32763-.1276-.08172-.2824-.1094-.4304-.07697-.148.03244-.277.12234-.3587.24992s-.1094.2824-.077.4304c.0324.14799.1223.27704.2499.35875z"/><path d="m11.2773 7.02221c.1098.00005.2174-.03172.3096-.09149.1538-.09959.3095-.19648.4671-.29067.0644-.03852.1205-.08934.1653-.14956.0447-.06023.0772-.12868.0954-.20144.0183-.07276.0221-.14841.0112-.22263-.011-.07422-.0364-.14556-.075-.20994-.0385-.06438-.0893-.12055-.1495-.16529-.0603-.04474-.1287-.07718-.2015-.09547-.0727-.01828-.1484-.02206-.2226-.01111s-.1456.03641-.2099.07493c-.169.10098-.3359.20484-.5009.31158-.1036.06697-.1827.16567-.2256.28135s-.0471.24212-.0121.36042c.0349.1183.1073.2221.2061.29588.0989.07379.219.11358.3424.11344zm17.0205 25.84459c-.1542.0993-.3102.1959-.4681.29-.1302.0774-.2243.2035-.2616.3504-.0373.1468-.0147.3025.0628.4327.0786.129.2047.222.351.2591.1464.0372.3016.0155.4322-.0603.1693-.1009.3368-.2046.5024-.3112.0633-.0405.118-.0931.161-.1548.0429-.0617.0733-.1313.0893-.2047.016-.0735.0174-.1494.004-.2234-.0133-.074-.0411-.1446-.0819-.2078-.0407-.0632-.0934-.1177-.1553-.1605-.0618-.0428-.1315-.0729-.205-.0887s-.1493-.0169-.2233-.0034c-.0739.0136-.1445.0417-.2075.0826zm3.3158-2.8767c-.1202.1388-.2429.2755-.3682.4101-.0511.0549-.0909.1193-.117.1896-.0262.0703-.0383.1451-.0356.2201.0027.0749.0202.1486.0514.2169.0312.0682.0756.1296.1305.1806.1117.1016.2587.1555.4096.15s.2937-.0698.3977-.1793c.1343-.1442.266-.2907.395-.4396.0992-.1145.1489-.2637.1382-.4148-.0108-.1512-.0812-.2918-.1957-.3911-.1145-.0992-.2637-.1489-.4148-.1381-.1511.0107-.2918.0811-.3911.1956z"/><path d="m33.7224 28.0578c-.0631-.0406-.1336-.0684-.2074-.0818s-.1496-.0121-.2229.0038c-.0733.0158-.1428.046-.2045.0888-.0616.0428-.1142.0972-.1548.1604-.0995.1544-.2016.3069-.3063.4576-.0428.0616-.0731.131-.0892.2043-.016.0732-.0174.149-.0042.2228.0133.0738.041.1443.0815.2075.0405.0631.093.1177.1546.1605.1249.0849.278.1174.4266.0908.1487-.0267.2809-.1105.3685-.2335.1127-.1619.2225-.3258.3292-.4916.0406-.0631.0684-.1335.0818-.2074.0134-.0738.0121-.1495-.0038-.2228-.0159-.0734-.0461-.1428-.0888-.2045-.0428-.0616-.0972-.1143-.1603-.1549z"/><path d="m26.3216 5.83806c.1676.07616.3336.15519.498.23711.0672.03369.1404.05379.2154.05915.0749.00535.1502-.00413.2215-.02792s.1372-.06141.194-.11071c.0567-.0493.1032-.10932.1367-.1766s.0534-.14051.0585-.2155c.0052-.07499-.0045-.15025-.0285-.22149-.024-.07123-.0618-.13703-.1112-.19363-.0495-.05661-.1096-.10289-.177-.13621-.1767-.08787-.355-.17267-.5349-.2544-.1379-.06267-.2951-.06797-.437-.01474-.1418.05323-.2567.16063-.3194.29857-.0626.13794-.0679.29512-.0147.43697s.1606.25674.2986.3194z"/><path d="m35.4674 23.8499c-.072-.0211-.1475-.0279-.222-.0198-.0746.008-.1469.0306-.2127.0666-.0659.036-.124.0846-.171.143-.0471.0584-.0822.1256-.1033.1975-.0517.1763-.1065.3514-.1644.5253-.0479.1438-.0367.3006.031.4361.0678.1355.1866.2386.3303.2865.1438.0459.2999.0338.4349-.0337.1349-.0675.2382-.1851.2878-.3276.0622-.1869.1211-.3752.1767-.5649.0211-.072.0279-.1474.0198-.222-.008-.0746-.0307-.1469-.0666-.2127-.036-.0659-.0846-.124-.143-.171-.0584-.0471-.1255-.0822-.1975-.1033z"/><path d="m34.7465 26.0166c-.0682-.0312-.1419-.0487-.2169-.0514s-.1497.0094-.22.0356-.1348.066-.1897.1171c-.0549.0512-.0992.1126-.1303.1809-.0765.1669-.1558.3323-.238.4961-.0679.1354-.0793.2923-.0316.4361.0476.1438.1505.2628.2859.3308.1357.0664.292.0769.4353.0294.1434-.0476.2624-.1494.3317-.2836.0884-.1763.1737-.3543.2558-.5341.0312-.0682.0486-.1419.0513-.2169.0027-.0749-.0094-.1497-.0356-.22s-.066-.1347-.1171-.1897c-.0511-.0549-.1126-.0992-.1808-.1303z"/><path d="m30.0573 31.5466c-.1385.1202-.2792.2381-.4222.3534-.1179.0952-.1931.2333-.2092.384-.016.1507.0284.3015.1236.4194s.2333.1932.3839.2092c.1507.0161.3016-.0284.4195-.1235.1535-.1239.3047-.2504.4534-.3797.0567-.0492.1031-.109.1366-.1761.0335-.0672.0535-.1402.0588-.2151.0052-.0748-.0043-.1499-.028-.2211-.0238-.0711-.0613-.1369-.1105-.1936-.0492-.0566-.109-.103-.1761-.1366-.0672-.0335-.1402-.0535-.215-.0587-.0749-.0053-.15.0042-.2212.0279-.0711.0238-.1369.0613-.1936.1105zm-3.6894 2.3768c-.1667.0763-.3349.1497-.5046.2202-.14.0581-.2511.1694-.309.3094s-.0578.2973.0003.4373c.0601.1382.1716.2476.3109.3052s.2955.0588.4357.0034c.1825-.0757.3631-.1545.542-.2364.0683-.0312.1297-.0755.1808-.1305.0511-.0549.0908-.1194.117-.1897s.0382-.1451.0355-.2201-.0202-.1487-.0514-.2169-.0755-.1296-.1305-.1807c-.0549-.0511-.1194-.0909-.1897-.1171-.0703-.0261-.1451-.0382-.2201-.0355s-.1487.0202-.2169.0514z"/><path d="m13.5573 33.9315c-.1673-.0764-.3331-.1558-.4973-.238-.1354-.0673-.292-.0782-.4354-.0303-.1435.048-.262.1508-.3298.286-.0677.1352-.079.2918-.0315.4353.0475.1436.1501.2625.2851.3306.1766.0885.3548.1738.5347.2559.1377.062.2944.067.4358.0138.1413-.0532.2559-.1602.3186-.2976.0626-.1374.0684-.2941.0159-.4357s-.159-.2567-.2961-.32z"/><path d="m15.619 34.6987c-.1766-.0516-.3518-.1062-.5256-.164-.0712-.0236-.1463-.033-.2212-.0276-.0748.0055-.1478.0256-.2149.0592-.0671.0337-.1268.0802-.1759.137-.0491.0567-.0865.1226-.1102.1938-.0236.0712-.033.1464-.0275.2212.0054.0748.0255.1479.0591.2149.0337.0671.0802.1269.137.176.0567.049.1226.0865.1938.1101.1868.0619.3749.1206.5643.176.1454.0426.3018.0256.4347-.0471.133-.0727.2316-.1952.2741-.3406.0426-.1455.0257-.3018-.047-.4348-.0728-.1329-.1953-.2315-.3407-.2741zm-2.3439-28.77505c.0824-.00004.1637-.01793.2385-.05244.1658-.07643.3334-.14994.5025-.22052.1399-.05841.2508-.16997.3083-.31015.0576-.14017.0571-.29747-.0013-.4373s-.1699-.25072-.3101-.3083c-.1402-.05757-.2975-.0571-.4373.00131-.1816.07588-.3616.15487-.5399.23697-.1184.05451-.2146.14785-.2726.26453-.0581.11669-.0745.2497-.0465.37699.0279.12729.0985.24121.2001.32286s.228.12612.3583.12604zm10.984-.84857c.1766.05119.3518.10549.5258.16291.1439.04711.3006.03521.4356-.03309.1351-.06831.2376-.18743.2849-.33122.0474-.14378.0357-.30048-.0324-.43568-.0681-.13519-.187-.23785-.3307-.28541-.1869-.06151-.3752-.11981-.5649-.1749-.0721-.0209-.1475-.0274-.2221-.01913-.0746.00826-.1468.03114-.2125.06731-.1328.07306-.2311.19585-.2733.34138-.0209.07205-.0274.14752-.0191.22209s.0311.14678.0673.21251.085.12369.1435.17057c.0586.04688.1258.08177.1979.10267z"/><path d="m24.3081 34.6933c-.1756.0515-.3525.1-.5308.1455-.1468.0374-.2728.1316-.3501.2619-.0774.1303-.0998.286-.0623.4328.0374.1468.1316.2728.2619.3501.1303.0774.286.0998.4328.0623.1915-.0488.3816-.1009.5702-.1563.072-.0211.1391-.0562.1976-.1032.0585-.0471.1071-.1052.1431-.171.036-.0659.0586-.1382.0667-.2128.008-.0746.0013-.15-.0198-.222-.0211-.0721-.0563-.1392-.1033-.1976-.0471-.0585-.1053-.107-.1711-.143-.0659-.036-.1382-.0586-.2128-.0666s-.1501-.0012-.2221.0199zm-8.8999-29.57163c.055-.00006.1096-.00799.1623-.02357.1754-.05188.3521-.10075.5302-.14659.1464-.038.2717-.13249.3485-.26275s.0988-.28565.0612-.43213c-.0375-.14647-.1317-.27206-.2617-.34924-.1301-.07717-.2854-.09964-.432-.06247-.1915.04909-.3816.10158-.5703.15747-.1317.03896-.2449.12405-.319.23967-.0741.11563-.104.25407-.0844.38998.0197.1359.0876.26019.1914.35011s.2365.13945.3738.13953z"/><path d="m19.954 6.1802c.4519 0 .8937-.13402 1.2695-.38512.3758-.25109.6687-.60799.8417-1.02555s.2182-.87703.13-1.32031c-.0881-.44328-.3058-.85046-.6254-1.17004-.3196-.31959-.7267-.53723-1.17-.62541-.4433-.08817-.9028-.04292-1.3203.13004-.4176.17296-.7745.46586-1.0256.84165-.2511.3758-.3851.81761-.3851 1.26957.0007.60586.2417 1.18671.6701 1.61511.4284.42841 1.0092.66938 1.6151.67006zm0-3.42775c.226 0 .4469.06701.6348.19256s.3343.304.4208.51278.1091.43851.065.66015-.1529.42523-.3127.58502c-.1598.1598-.3634.26862-.585.31271-.2217.04408-.4514.02146-.6602-.06502s-.3872-.23293-.5128-.42083c-.1255-.1879-.1925-.4088-.1925-.63479 0-.30303.1204-.59365.3346-.80792.2143-.21428.5049-.33466.808-.33466zm-13.71105 17.13875c0-.4519-.13402-.8938-.38512-1.2695-.2511-.3758-.60799-.6687-1.02555-.8417s-.87704-.2182-1.32032-.13c-.44328.0881-.85045.3058-1.17004.6254s-.53723.7267-.6254 1.17c-.08818.4433-.04292.9028.13004 1.3203.17296.4176.46585.7745.84165 1.0256.37579.2511.8176.3851 1.26957.3851.60585-.0007 1.1867-.2417 1.61511-.6701.4284-.4284.66938-1.0092.67006-1.6151zm-3.42776 0c0-.226.06702-.4469.19256-.6348.12555-.1879.304-.3343.51278-.4208s.43852-.1091.66016-.065.42522.1529.58502.3127c.15979.1598.26861.3634.3127.585.04409.2217.02146.4514-.06502.6602s-.23293.3872-.42082.5128c-.1879.1255-.40881.1925-.63479.1925-.30303 0-.59365-.1204-.80793-.3346-.21428-.2143-.33466-.5049-.33466-.808zm33.13501-2.2851c-.452 0-.8938.134-1.2696.3851s-.6687.608-.8417 1.0255c-.1729.4176-.2182.8771-.13 1.3203.0882.4433.3058.8505.6254 1.1701s.7268.5372 1.17.6254c.4433.0882.9028.0429 1.3204-.1301.4175-.1729.7744-.4658 1.0255-.8416s.3851-.8176.3851-1.2696c-.0007-.6058-.2416-1.1867-.67-1.6151s-1.0093-.6694-1.6151-.67zm0 3.4277c-.226 0-.4469-.067-.6348-.1925-.1879-.1256-.3344-.304-.4208-.5128-.0865-.2088-.1092-.4385-.0651-.6602.0441-.2216.1529-.4252.3127-.585s.3634-.2686.5851-.3127c.2216-.0441.4513-.0215.6601.065s.3872.2329.5128.4208c.1255.1879.1925.4088.1925.6348 0 .3031-.1203.5937-.3346.808-.2143.2142-.5049.3346-.8079.3346z"/><path d="m24.2765 19.0543c.1169.0001.2309-.0358.3267-.1029l.7271-.508c.1238-.0869.2081-.2194.2344-.3684s-.0076-.3024-.0943-.4264c-.0866-.1241-.219-.2087-.3679-.2353-.149-.0266-.3024.007-.4267.0934l-.727.508c-.0997.0696-.1746.1692-.2138.2844-.0391.1151-.0405.2397-.004.3557.0366.116.1092.2173.2073.2891.0981.0719.2166.1106.3382.1104z"/><path d="m23.2796 15.6104c-.0745-.0088-.15-.0029-.2223.0174-.0722.0204-.1397.0547-.1987.1012-.0589.0464-.1081.1041-.1448.1695-.0366.0655-.06.1376-.0688.2121l-.1159.9782c-.0178.1504.0249.3018.1187.4208s.231.1959.3815.2138c.0225.0026.0452.0039.0679.0039.1397-.0002.2746-.0516.379-.1445s.1712-.2208.1877-.3596l.1159-.9781c.0178-.1505-.0249-.3019-.1187-.4209s-.231-.1959-.3815-.2138zm1.6649 4.9652.9072.1635c.0336.0061.0678.0092.1019.0092.1427-.0002.2801-.0537.3853-.1501s.1705-.2287.1831-.3708-.0284-.2837-.115-.3971-.2124-.1903-.3528-.2156l-.9071-.1635c-.0739-.0134-.1497-.012-.223.0039-.0734.0159-.1429.0462-.2045.089-.0617.0428-.1143.0973-.1549.1604-.0405.0632-.0683.1337-.0816.2076s-.0119.1496.0041.223c.016.0733.0463.1427.0891.2044.0429.0616.0975.1142.1606.1547.0632.0405.1338.0682.2076.0814z"/><path d="m11.3845 13.0358c-.4544.0005-.89.1812-1.2113.5025-.32132.3213-.50205.7569-.50255 1.2113v10.569h.00754c.00791-.118.02502-.2352.05118-.3505.06581-.2946.19099-.5725.36793-.817.1769-.2445.4018-.4503.661-.6049.0188-.0112.0366-.0225.0549-.0338v-8.7628c.0002-.1514.0604-.2966.1675-.4038.1071-.1071.2524-.1673.4038-.1674h17.1388c.1515.0001.2967.0603.4038.1674.1071.1072.1673.2524.1675.4038v10.8546c-.0002.1515-.0604.2967-.1675.4038s-.2523.1673-.4038.1675h-9.9423c-.0576.0196-.1135.0365-.1719.0575l.767.5452c.2003.1425.3673.3267.4898.5399h8.8574c.4544-.0005.89-.1812 1.2114-.5026.3213-.3213.502-.7569.5025-1.2113v-10.8546c-.0005-.4544-.1812-.89-.5025-1.2113-.3214-.3213-.757-.502-1.2114-.5025z"/><path d="m14.4377 27.3532c.2124-.0043.4191-.07.5949-.1893l.3807-.2568 2.4386 1.7336c.1242.0856.2769.1194.4256.0943s.2818-.1073.371-.2289c.0435-.0612.0745-.1303.0912-.2034.0168-.0731.019-.1488.0065-.2228s-.0394-.1448-.0793-.2083c-.0399-.0636-.0919-.1186-.153-.1621l-2.139-1.5205c.0952-.1216.1634-.2622.1997-.4123 3.53-1.7617 6.0003-1.2278 6.9469-1.0221.1606.0343.3279.02.4804-.0409.1526-.0609.2836-.1658.3764-.3014.0929-.1355.1433-.2956.145-.4599.0017-.1642-.0455-.3253-.1355-.4627l-2.0554-3.1362.302-.2002c.1255-.0841.2127-.2144.2423-.3625.0297-.1481-.0005-.302-.084-.4279-.0834-.1259-.2133-.2136-.3613-.244-.148-.0303-.302-.0008-.4283.082l-.297.197-2.2409-3.4191c-.0904-.1376-.2199-.245-.3719-.3084-.1519-.0633-.3193-.0797-.4807-.0471s-.3093.1128-.4247.2301c-.1155.1174-.1931.2667-.223.4286-.1755.9393-.6347 3.3888-3.6144 6.0531-.1386-.0281-.2813-.0282-.42-.0004-.1386.0279-.2703.0831-.3873.1625l-1.1008.7427c-.1464.0997-.2662.2337-.3487.3905-.0826.1567-.1254.3312-.1248.5084-.2019.1296-.4085.2591-.6246.3883-.1285.0825-.2393.1896-.326.3153-.0868.1256-.1477.2672-.1792.4166-.0316.1494-.0331.3036-.0046.4535.0285.15.0865.2929.1707.4202l.8671 1.3231c.0835.1297.1926.2409.3206.3269s.2722.145.4238.1732c.1516.0283.3074.0253.4578-.0088s.2923-.0986.4169-.1895c.2093-.1643.4152-.3179.6196-.4667.0195-.0137.0921.028.1131.0338.0696.019.1415.0286.2136.0285zm-.3176-3.8669 1.3246 2.0214-.9887.6669-1.3248-2.0212zm4.8017-6.2524 4.1101 6.2715c-2.2219-.3237-4.4874.0696-6.7713 1.1628l-1.0383-1.5846c1.8942-1.7392 3.1356-3.6948 3.6995-5.8497zm-6.0953 9.5932-.8644-1.3382c.1642-.0984.325-.1981.4823-.299l.8441 1.2878c-.154.1129-.308.2294-.462.3493z"/><path d="m29.7099 39.3153h-2.3731c-.1436.0115-.2777.0767-.3754.1826-.0977.1058-.152.2446-.152.3887s.0543.2829.152.3887c.0977.1059.2318.1711.3754.1826h2.3731c.1436-.0115.2776-.0767.3753-.1826.0977-.1058.152-.2446.152-.3887s-.0543-.2829-.152-.3887c-.0977-.1059-.2317-.1711-.3753-.1826zm-17.1388 0h-2.3731c-.1436.0115-.27763.0767-.37536.1826-.09772.1058-.15199.2446-.15199.3887s.05427.2829.15199.3887c.09773.1059.23176.1711.37536.1826h2.3731c.1436-.0115.2776-.0767.3753-.1826.0978-.1058.152-.2446.152-.3887s-.0542-.2829-.152-.3887c-.0977-.1059-.2317-.1711-.3753-.1826zm13.0958 0h-11.4259c-.1515 0-.2968.0602-.404.1673-.1071.1072-.1673.2525-.1673.404s.0602.2968.1673.404c.1072.1071.2525.1673.404.1673h4.5532v.5713h-2.268c-.1515 0-.2969.0602-.404.1673-.1071.1072-.1673.2525-.1673.404s.0602.2968.1673.4039c.1071.1072.2525.1674.404.1674h7.1411c.1515 0 .2969-.0602.404-.1674.1071-.1071.1673-.2524.1673-.4039s-.0602-.2968-.1673-.404c-.1071-.1071-.2525-.1673-.404-.1673h-2.5536v-.5713h4.5532c.1515 0 .2968-.0602.4039-.1673.1072-.1072.1673-.2525.1673-.404s-.0601-.2968-.1673-.404c-.1071-.1071-.2524-.1673-.4039-.1673z"/></g></svg>