<svg fill="none" height="37" viewBox="0 0 34 37" width="34" xmlns="http://www.w3.org/2000/svg"><g fill="#9a015b"><path d="m14.5546 18.7006c-.1102 0-.2182-.0306-.3119-.0885-.0938-.0579-.1696-.1407-.2189-.2392-1.1721-2.3441-2.5626-3.2573-4.96021-3.2573h-7.20812c-.47242 0-.925486-.1877-1.259535-.5217-.334049-.3341-.5217162-.7872-.5217162-1.2596v-6.72004c-.0000001-.47242.1876672-.92549.5217162-1.25954s.787115-.52171 1.259535-.52171h11.51163c.4724 0 .9255.18766 1.2595.52171.3341.33405.5217.78712.5217 1.25954v11.49264c0 .1575-.0625.3085-.1739.4198-.1113.1114-.2623.1739-.4198.1739zm-12.69913-12.68009c-.15747 0-.3085.06255-.41985.1739s-.1739.26238-.1739.41985v6.72004c0 .1575.06255.3085.1739.4199.11135.1113.26238.1739.41985.1739h7.20812c2.13391 0 3.68121.6567 4.89721 2.1375v-9.45134c0-.15747-.0625-.3085-.1739-.41985-.1113-.11135-.2623-.1739-.4198-.1739zm17.58923 20.84539c-.1575 0-.3085-.0626-.4198-.1739-.1114-.1114-.1739-.2624-.1739-.4199v-11.4926c0-.4724.1876-.9255.5217-1.2595.334-.3341.7871-.5217 1.2595-.5217h11.5116c.4725 0 .9255.1876 1.2596.5217.334.334.5217.7871.5217 1.2595v6.7201c0 .4724-.1877.9255-.5217 1.2595-.3341.3341-.7871.5217-1.2596.5217h-7.2081c-2.3975 0-3.7881.9132-4.9602 3.2573-.0493.0985-.1251.1814-.2189.2392-.0937.0579-.2017.0886-.3119.0886zm1.1875-12.6801c-.1575 0-.3085.0625-.4198.1739-.1114.1113-.1739.2623-.1739.4198v9.4513c1.2177-1.4808 2.7633-2.1375 4.8972-2.1375h7.2081c.1575 0 .3085-.0625.4199-.1739.1113-.1113.1739-.2624.1739-.4198v-6.7201c0-.1575-.0626-.3085-.1739-.4198-.1114-.1114-.2624-.1739-.4199-.1739z"/><path d="m11.1055 9.26184h-7.03416c-.15747 0-.30849-.06255-.41984-.1739s-.17391-.26238-.17391-.41985.06256-.30849.17391-.41984.26237-.17391.41984-.17391h7.03416c.1575 0 .3085.06256.4198.17391.1114.11135.174.26237.174.41984s-.0626.3085-.174.41985c-.1113.11135-.2623.1739-.4198.1739zm-2.08763 2.45036h-4.94653c-.15747 0-.30849-.0625-.41984-.1739-.11135-.1113-.17391-.2623-.17391-.4198s.06256-.3085.17391-.4198c.11135-.1114.26237-.174.41984-.174h4.94653c.15748 0 .3085.0626.41985.174.11135.1113.1739.2623.1739.4198s-.06255.3085-.1739.4198c-.11135.1114-.26237.1739-.41985.1739zm5.53673 22.0436c-.1102 0-.2183-.0308-.312-.0888-.0938-.058-.1695-.1409-.2188-.2395-1.1721-2.3436-2.5626-3.2568-4.96021-3.2568h-7.20812c-.47242 0-.925486-.1876-1.259535-.5217-.334049-.334-.5217162-.7871-.5217162-1.2595v-6.7207c-.0000001-.4724.1876672-.9254.5217162-1.2595.334049-.334.787115-.5217 1.259535-.5217h11.51163c.4724 0 .9255.1877 1.2595.5217.3341.3341.5217.7871.5217 1.2595v11.4933c.0002.1338-.0449.2637-.1279.3687-.083.1049-.199.1788-.3292.2096-.0449.0101-.0907.0152-.1366.0154zm-12.69913-12.6807c-.15747 0-.3085.0625-.41985.1739-.11135.1113-.1739.2624-.1739.4198v6.7207c0 .1575.06255.3085.1739.4198.11135.1114.26238.1739.41985.1739h7.20812c2.13391 0 3.68121.6561 4.89721 2.1375v-9.4519c0-.1574-.0625-.3085-.1739-.4198-.1113-.1114-.2623-.1739-.4198-.1739z"/><path d="m11.1055 28.1419h-6.99027c-.15747 0-.30849-.0626-.41984-.174-.11135-.1113-.17391-.2623-.17391-.4198v-5.038c0-.1574.06256-.3085.17391-.4198.11135-.1114.26237-.1739.41984-.1739h6.98847c.1574 0 .3085.0625.4198.1739.1114.1113.1739.2624.1739.4198v5.038c0 .1572-.0623.3079-.1733.4192-.1109.1113-.2615.1741-.4186.1746zm-6.39473-1.1875h5.80093v-3.8505h-5.80272z"/><path d="m4.28716 26.287c-.12487.0006-.24676-.0381-.34834-.1108-.10158-.0726-.17767-.1754-.21745-.2938-.03978-.1183-.04124-.2462-.00415-.3655.03708-.1192.11082-.2237.21072-.2986l1.85012-1.4007c.10953-.0832.24453-.1257.38195-.1204s.26873.0581.37152.1495l1.14594 1.0213 3.15343-1.6483c.1396-.073.3025-.0875.4528-.0404s.2758.152.3487.2916c.073.1396.0876.3024.0405.4528-.0471.1503-.152.2757-.2916.3487l-3.51739 1.8406c-.10688.0558-.2282.0777-.34784.0629-.11963-.0149-.23191-.0658-.32191-.146l-1.08835-.969-1.46062 1.108c-.10334.0772-.22902.1187-.35803.1181zm20.50164-5.3906c-.1575 0-.3085-.0626-.4199-.1739-.1113-.1114-.1739-.2624-.1739-.4199v-4.3261c-.0001-.1038.027-.2059.0787-.296s.1261-.165.2159-.2174c.0897-.0523.1916-.0802.2954-.0809.1039-.0006.2061.026.2965.0772l3.8124 2.1636c.0914.0518.1674.1269.2203.2176.0529.0908.0807.1939.0807.299 0 .105-.0278.2082-.0807.2989-.0529.0908-.1289.1659-.2203.2176l-3.8124 2.1631c-.0893.0506-.1901.0772-.2927.0772zm.5937-3.9004v2.2871l2.0152-1.1435zm-18.47631 4.082c-.15747 0-.3085-.0625-.41984-.1739-.11135-.1113-.17391-.2623-.17391-.4198v-5.9613c0-.1574.06256-.3085.17391-.4198.11134-.1114.26237-.1739.41984-.1739s.30849.0625.41984.1739c.11135.1113.17391.2624.17391.4198v5.9613c0 .1575-.06256.3085-.17391.4198-.11135.1114-.26237.1739-.41984.1739zm18.10941 15.2357h-16.32816c-.62989 0-1.23398-.2503-1.67938-.6957s-.69562-1.0494-.69562-1.6793v-4.3641c0-.1575.06256-.3085.17391-.4198.11134-.1114.26237-.1739.41984-.1739s.30849.0625.41984.1739c.11135.1113.17391.2623.17391.4198v4.3641c0 .3149.12511.617.34781.8397s.52475.3478.83969.3478h16.32816c.3149 0 .617-.1251.8397-.3478s.3478-.5248.3478-.8397v-10.6751c0-.1574.0625-.3085.1739-.4198.1113-.1114.2623-.1739.4198-.1739s.3085.0625.4199.1739c.1113.1113.1739.2624.1739.4198v10.6751c0 .6299-.2503 1.2339-.6957 1.6793s-1.0494.6957-1.6793.6957zm1.7812-22.1291c-.1575 0-.3085-.0625-.4198-.1739-.1114-.1113-.1739-.2624-.1739-.4198v-10.55098c0-.31495-.1251-.61699-.3478-.83969s-.5248-.34781-.8397-.34781h-16.32816c-.31494 0-.61699.12511-.83969.34781s-.34781.52474-.34781.83969v2.38687c0 .15748-.06256.3085-.17391.41985s-.26237.1739-.41984.1739-.3085-.06255-.41984-.1739c-.11135-.11135-.17391-.26237-.17391-.41985v-2.38687c0-.62989.25022-1.23398.69562-1.67938s1.04949-.695623 1.67938-.695623h16.32816c.6299 0 1.2339.250223 1.6793.695623s.6957 1.04949.6957 1.67938v10.55098c0 .1574-.0626.3085-.1739.4198-.1114.1114-.2624.1739-.4199.1739z"/><path d="m18.5935 3.43005h-3.4871c-.1574 0-.3085-.06255-.4198-.1739s-.1739-.26237-.1739-.41985c0-.15747.0626-.30849.1739-.41984s.2624-.17391.4198-.17391h3.4871c.1575 0 .3085.06256.4199.17391.1113.11135.1739.26237.1739.41984 0 .15748-.0626.3085-.1739.41985-.1114.11135-.2624.1739-.4199.1739zm1.7724-.00415c-.0792.00141-.1579-.01271-.2316-.04157-.0722-.02897-.1371-.07358-.19-.13062-.1106-.11125-.1726-.26173-.1726-.41859s.062-.30735.1726-.4186c.1137-.10593.2633-.16483.4186-.16483.1554 0 .305.0589.4186.16483.0554.05435.0997.11886.1306.19.0282.07394.0422.15247.0416.23156.0007.0773-.0142.15394-.0438.22534-.0296.07141-.0732.13613-.1284.19029-.0529.05704-.1178.10165-.19.13062-.0718.0284-.1484.04251-.2256.04157z"/></g></svg>