<svg fill="none" height="34" viewBox="0 0 34 34" width="34" xmlns="http://www.w3.org/2000/svg" xmlns:xlink="http://www.w3.org/1999/xlink"><clipPath id="a"><path d="m0 0h34v34h-34z"/></clipPath><g clip-path="url(#a)" fill="#016037"><path d="m32.4062 2.92188h-30.81245c-.42255.00046-.827656.16852-1.126442.4673-.298786.29879-.46684677.7039-.467308 1.12644v22.84378c.00046123.4225.168522.8276.467308 1.1264s.703892.4669 1.126442.4673h10.62505v1.0625h-3.7188c-.1409 0-.27602.056-.37565.1556-.09963.0997-.1556.2348-.1556.3757s.05597.276.1556.3756c.09963.0997.23475.1556.37565.1556h17c.1409 0 .276-.0559.3757-.1556.0996-.0996.1555-.2347.1555-.3756s-.0559-.276-.1555-.3757c-.0997-.0996-.2348-.1556-.3757-.1556h-3.7188v-1.0625h10.625c.4226-.0004.8277-.1685 1.1265-.4673s.4668-.7039.4673-1.1264v-22.84378c-.0005-.42254-.1685-.82765-.4673-1.12644-.2988-.29878-.7039-.46684-1.1265-.4673zm-11.6874 27.09372h-7.4376v-1.0625h7.4376zm12.2187-2.6562c-.0001.1408-.0562.2759-.1558.3755s-.2346.1556-.3755.1557h-30.81245c-.14085-.0001-.2759-.0561-.3755-.1557-.09959-.0996-.15561-.2347-.15575-.3755v-.5313h31.875zm0-1.5938h-31.875v-21.24998c.00014-.14085.05616-.27589.15575-.37549.0996-.0996.23465-.15561.3755-.15575h30.81245c.1409.00014.2759.05615.3755.15575s.1557.23464.1558.37549z"/><path d="m5.3125 12.2188h1.0625c.28169-.0004.55176-.1124.75095-.3116.19918-.1992.31123-.4693.31155-.751v-1.5937c-.00032-.28169-.11237-.55176-.31155-.75095-.19919-.19918-.46926-.31123-.75095-.31155h-1.0625c-.28169.00032-.55176.11237-.75095.31155-.19918.19919-.31123.46926-.31155.75095v1.5937c.00032.2817.11237.5518.31155.751.19919.1992.46926.3112.75095.3116zm0-2.6563h1.0625v1.5937l-1.0625.0007zm0 7.4375h1.0625c.28169-.0003.55176-.1124.75095-.3116.19918-.1991.31123-.4692.31155-.7509v-1.5937c-.00032-.2817-.11237-.5518-.31155-.751-.19919-.1992-.46926-.3112-.75095-.3116h-1.0625c-.28169.0004-.55176.1124-.75095.3116-.19918.1992-.31123.4693-.31155.751v1.5937c.00032.2817.11237.5518.31155.7509.19919.1992.46926.3113.75095.3116zm0-2.6562h1.0625v1.5937l-1.0625.0006zm0 7.4374h1.0625c.28169-.0003.55176-.1123.75095-.3115.19918-.1992.31123-.4693.31155-.7509v-1.5938c-.00032-.2817-.11237-.5518-.31155-.7509-.19919-.1992-.46926-.3113-.75095-.3116h-1.0625c-.28169.0003-.55176.1124-.75095.3116-.19918.1991-.31123.4692-.31155.7509v1.5938c.00032.2816.11237.5517.31155.7509.19919.1992.46926.3112.75095.3115zm0-2.6562h1.0625v1.5938l-1.0625.0006z"/><path d="m19.6563 22.8438v-4.8867l-1.0625-.2695v5.1562h-9.03124v-7.1719h4.29914c-.3872-.32-.7434-.6757-1.0638-1.0625h-3.23534v-7.1719h9.03124v4.7771l1.0625.2761v-5.0532h.5403l-.0759-1.0625h-16.46777c-.41375.00936-.8069.18238-1.0933.48112-.2864.29875-.44267.69886-.43457 1.11263v14.34375c-.0081.4138.14817.8139.43457 1.1126.2864.2988.67955.4718 1.0933.4811h17.00397c-.1871-.3312-.3214-.6897-.398-1.0624zm-11.15624 0h-4.84713c-.13189-.0095-.25473-.0706-.34186-.17-.08713-.0995-.13151-.2293-.12351-.3613v-14.34375c-.008-.13199.03638-.2618.12351-.36126s.20997-.16054.34186-.16999h4.84713z"/><path d="m29.8871 15.1352c-.3974-.0971-.8117-.1026-1.2115-.0162-.3999.0864-.7749.2626-1.0967.5151l-1.9505-.5067c-.1724-.2782-.3999-.5182-.6686-.7051l-.2753-4.2069c-.0627-.98968-.3367-1.95444-.8035-2.82936-.4668-.87491-1.1156-1.63968-1.9027-2.24282-.0813-.06203-.1788-.09928-.2807-.10729-.102-.008-.2041.01358-.294.06217-.09.04858-.1641.1221-.2133.21173s-.0715.19157-.0643.29357l.6077 8.5121-8.3234-2.1625c-.0991-.0258-.2037-.0224-.3009.0099-.0973.0323-.1831.092-.2472.1719-.0641.08-.1037.1768-.114.2787s.009.2047.0558.2959c.4567.8823 1.0962 1.6573 1.8757 2.2734.7795.616 1.6813 1.059 2.6454 1.2994l4.1322 1.048c.1319.2979.3232.5658.5622.7873l.1413 1.9793c-.3087.2664-.5522.6001-.7116.9754s-.2305.7822-.2079 1.1893c.0383.6651.33 1.2902.8151 1.7467.4851.4566 1.1268.7098 1.7929.7077.1592 0 .318-.0143.4746-.0428.5635-.1088 1.0773-.3954 1.4659-.8177.3886-.4222.6317-.958.6935-1.5285.0489-.4757-.0341-.9557-.2398-1.3874-.2058-.4317-.5263-.7984-.9266-1.0601l-.1045-1.5969 1.5705.3982c.1878.4404.4924.8211.8808 1.1009.3885.2798.8461.4481 1.3233.4867.0768.007.1534.0105.23.0105.5349-.0029 1.057-.1646 1.4998-.4647.4429-.3001.7865-.7251.9874-1.2209.1329-.3419.1915-.7082.1719-1.0745s-.1169-.7242-.2855-1.05c-.1731-.3304-.4145-.6202-.7082-.8501s-.633-.3947-.9953-.4834zm-8.6314 1.0478-3.6694-.9306c-1.2073-.3031-2.2901-.9748-3.098-1.9216l7.0795 1.8393c-.1801.3093-.2869.6558-.3121 1.0129zm3.6624.0584c.0207.1705.0073.3433-.0395.5085s-.126.3195-.2331.4537c-.107.1343-.2397.2459-.3903.3283s-.3161.134-.4869.1518c-.0441.0045-.0883.0067-.1326.0068-.3263-.0024-.6404-.1243-.8828-.3427-.2425-.2183-.3965-.518-.433-.8423-.0207-.1704-.0073-.3433.0395-.5084.0468-.1652.126-.3195.2331-.4537.107-.1343.2397-.2459.3903-.3283s.3161-.134.4869-.1518c.0441-.0045.0883-.0068.1326-.0068.3263.0024.6404.1243.8828.3427.2425.2183.3965.518.433.8422zm-1.2938-5.9568.2438 3.7258c-.0882-.0104-.177-.0159-.2658-.0164h-.0001c-.2735-.0003-.545.0479-.8017.1423l-.5165-7.23487c.7917.95858 1.2607 2.14253 1.3403 3.38317zm1.8012 11.9419c-.0372.3409-.1826.661-.415.9132-.2323.2522-.5394.4232-.8762.4881-.2161.0412-.4385.0359-.6524-.0158-.2139-.0516-.4142-.1483-.5877-.2837-.1735-.1353-.316-.3061-.4182-.501-.1021-.1949-.1614-.4093-.174-.629-.015-.2765.0422-.5522.1658-.8.1237-.2478.3096-.4592.5395-.6136.0776-.0521.1401-.1239.1811-.2079.041-.0841.0591-.1775.0525-.2708l-.1149-1.6102c.3452.0792.7041.0768 1.0482-.007l.1011 1.5442c.006.093.0365.1829.0883.2604.0518.0776.1231.1401.2067.1814.2841.1402.5184.3641.6713.6415.1529.2775.217.5951.1838.9102zm5.2876-4.0162c-.13.3184-.3582.587-.6513.7668s-.6359.2614-.9786.2331c-.3172-.0239-.6196-.1439-.8669-.3441-.2472-.2002-.4276-.471-.517-.7764-.0255-.0894-.074-.1706-.1408-.2354-.0667-.0647-.1493-.1109-.2394-.1337l-1.5256-.3869c.1389-.32.2048-.6669.193-1.0155l1.5984.4152c.0897.0234.1839.0228.2733-.0015s.1709-.0717.2363-.1372c.1981-.1971.4436-.34.7128-.415.2692-.0749.5531-.0795.8246-.0132.2159.0525.4182.1503.5934.2869.1752.1367.3193.3091.4228.5057.1002.1916.1579.4026.1691.6185.0113.216-.0243.4318-.1042.6327z"/></g></svg>