<svg fill="none" height="36" viewBox="0 0 37 36" width="37" xmlns="http://www.w3.org/2000/svg"><path d="m35.435 16.8545c0-1.1455-.9272-2.1273-2.1272-2.1273h-6.2728v-12.38179c0-.98182-.8181-1.8-1.8-1.8h-21.98177c-1.03637 0-1.85455.81818-1.85455 1.8v16.47269c0 .9819.81818 1.8 1.8 1.8h7.47272v3.4909h-3.05454c-.32727 0-.54545.2182-.54545.5455s.21818.5455.54545.5455h7.03634v2.6181c0 1.1455.9273 2.1273 2.1273 2.1273h5.6727v3.6c0 1.0364.8728 1.9091 1.9091 1.9091h5.1818c1.0364 0 1.9091-.8727 1.9091-1.9091v-3.6h1.8546c1.1454 0 2.1272-.9273 2.1272-2.1273zm-32.94541 1.9636v-16.47269c0-.38182.32727-.70909.76364-.70909h22.03637c.3818 0 .7091.32727.7091.70909v12.43639h-1.5818v-11.23639c0-.32727-.2182-.54545-.5455-.54545h-19.25454c-.32727 0-.54545.21818-.54545.54545v14.07269c0 .3273.21818.5455.54545.5455h10.03634v1.3636c-3.2727 0-9.49088 0-11.39997 0-.43637 0-.76364-.3272-.76364-.7091zm20.83641-4.0363h-6.5455c-1.1455 0-2.1273.9272-2.1273 2.1272v.1637h-9.49088v-12.98184h18.16368zm-11.5091 9.3272v-3.4909h2.8363v3.4909zm18.5454.1637h-6.8182v-.1637c0-.4363.3819-.8181.8182-.8181h5.1818c.4364 0 .8182.3818.8182.8181zm-6.8182 1.0909h6.8182c0 .2182 0 6.7636 0 6.7091h-6.8182c0-.1091 0-7.0364 0-6.7091zm7.9091-1.2546c0-1.0363-.8727-1.909-1.9091-1.909h-5.1818c-1.0363 0-1.9091.8727-1.9091 1.909v2.5091h-4.6363v-8.5091h14.4v8.5091h-.8182v-2.5091zm-1.9091 10.2546h-5.1818c-.4363 0-.8182-.3818-.8182-.8182v-.3818h6.8182v.3818c0 .4364-.3818.8182-.8182.8182zm4.8-6.5455c0 .5455-.4363 1.0364-1.0363 1.0364h-1.8546v-1.1455h1.3637c.3272 0 .5454-.2181.5454-.5454v-9.6c0-.3273-.2182-.5455-.5454-.5455h-15.5455c-.3273 0-.5454.2182-.5454.5455v9.6c0 .3273.2181.5454.5454.5454h5.1818v1.1455h-5.6727c-.5455 0-1.0364-.4364-1.0364-1.0364 0-.3818 0-11.6727 0-10.9636 0-.5455.4364-1.0364 1.0364-1.0364h16.5273c.5454 0 1.0363.4364 1.0363 1.0364z" fill="#0e6db8"/></svg>