<svg fill="none" height="36" viewBox="0 0 37 36" width="37" xmlns="http://www.w3.org/2000/svg"><g fill="#033654"><path d="m19.9298 31.7812h-10.18688c-.14918 0-.29226-.0592-.39775-.1647s-.16475-.2486-.16475-.3977c0-.1492.05926-.2923.16475-.3978s.24857-.1648.39775-.1648h10.18688c.1492 0 .2923.0593.3977.1648.1055.1055.1648.2486.1648.3978 0 .1491-.0593.2922-.1648.3977-.1054.1055-.2485.1647-.3977.1647z"/><path d="m9.55176 31.8319c-.14919 0-.29226-.0593-.39775-.1648s-.16475-.2485-.16475-.3977c.4275-11.8069 6.05254-19.1644 7.78504-21.1444 2.7675-3.14999 9.2587-7.09874 13.6518-8.28562.1421-.03309.2914-.00972.4166.06518.1251.07491.2163.19549.2542.33631.0379.14083.0197.29088-.0509.41852-.0705.12763-.1879.22287-.3274.26561-4.2187 1.125-10.4568 4.9275-13.095 7.9481-1.6875 1.9013-7.1212 9-7.515 20.4188-.0057.1443-.0668.2808-.17044.3813-.10366.1005-.24201.1574-.3864.1587z"/><path d="m16.7968 7.07061c-.1243-.00038-.2449-.04192-.3431-.11812-.1176-.09118-.1943-.22524-.2133-.37284s.0213-.2967.112-.41466c1.8563-2.41875 5.8388-5.13563 14.2707-4.3425.1491.01417.2866.08703.382.20254.0955.11551.1412.26421.127.4134-.0142.14918-.087.28662-.2025.38209s-.2642.14114-.4134.12697c-7.9144-.7425-11.5875 1.6875-13.2694 3.9375-.0563.06266-.126.11188-.2039.14401s-.162.04635-.2461.04161zm-8.04938 15.76689c-.09068-.0002-.17999-.0222-.2603-.0644-.08031-.0421-.14925-.103-.20095-.1775-2.53687-3.6225-1.44562-6.1875-.39375-8.6906l.0675-.1575c.03554-.084.09098-.1581.16153-.2159.07056-.0579.15412-.0977.24347-.116.08992-.0188.18307-.0153.27131.0102.08825.0255.16892.0722.23494.1361l1.23183 1.2037c.4388-2.07 1.5638-6.65436 3.4707-8.67374.0928-.09785.2178-.15906.352-.17249.1342-.01342.2688.02185.3792.09937.2756.19125 1.6875 1.215 1.8506 2.25.0111.07313.0077.14772-.0101.21953-.0177.0718-.0494.13941-.0933.19895-.0439.05955-.099.10987-.1624.14809-.0633.03822-.1335.0636-.2067.07468-.0731.01108-.1477.00765-.2195-.0101s-.1394-.04947-.1989-.09334c-.0596-.04388-.1099-.09906-.1481-.16238s-.0636-.13355-.0747-.20668c-.2156-.48141-.5554-.89685-.9844-1.20375-1.9969 2.62125-3.0375 8.67376-3.0487 8.74126-.0174.1008-.0618.1949-.1287.2723-.0668.0774-.1535.1351-.2507.1669s-.2012.0366-.3008.0137c-.0997-.0229-.1912-.0725-.2648-.1435l-1.39503-1.3557c-.9225 2.25-1.47375 4.1457.52875 7.0032.04317.0604.07393.1288.09051.2012.01658.0725.01866.1474.00611.2206-.01255.0733-.03948.1433-.07924.206-.03975.0628-.09154.117-.15238.1597-.09049.0705-.2004.1118-.315.1181z"/><path d="m20.0594 19.0125h-.0788l-2.8125-.3938c-.1173-.0172-.2262-.0711-.311-.154-.0849-.0828-.1414-.1903-.1615-.3072-.0196-.1167-.0018-.2366.0507-.3426.0525-.1061.1371-.1929.2418-.248.0281 0 2.6775-1.4063 3.9375-3.33.7425-1.125 1.3388-2.1207 1.7213-2.7788h-1.5863c-.1228-.0012-.2417-.0426-.3388-.1178-.097-.0752-.1668-.1801-.1987-.2986-.0318-.1186-.024-.2443.0222-.358.0463-.1137.1285-.2092.2341-.2718 1.439-.7761 2.8173-1.65987 4.1231-2.64378.1072-.16297.2048-.33201.2925-.50625 1.0393-2.0341 2.5445-3.7938 4.3931-5.13562.1203-.08656.27-.12212.4164-.09895.1464.02318.2778.10321.3655.2227.0429.06079.0733.1295.0894.20212.0162.07263.0177.14774.0047.22098-.0131.07324-.0406.14316-.0809.20571s-.0926.11649-.1538.15869c-1.7115 1.24071-3.102 2.87221-4.0557 4.75875-.1103.22123-.2343.43539-.3712.64125-.822.7253-1.7219 1.35729-2.6831 1.8844h.5175c.0976 0 .1935.0254.2783.0737.0848.0484.1556.1179.2054.2019.0494.0855.0754.1825.0754.2812 0 .0988-.026.1958-.0754.2813-.0337.0675-.8831 1.62-2.25 3.69-.8095 1.1328-1.8223 2.1056-2.9869 2.8687l1.2375.1744c.1492.0105.2881.0797.3862.1926s.1474.2601.137.4093c-.0105.1492-.0798.2881-.1926.3862-.1129.0981-.2601.1474-.4093.1369zm-7.2675 5.6756c-.7805-.0085-1.5592-.0781-2.3288-.2081-.0739-.0115-.1448-.0373-.2086-.0762-.0639-.0388-.1195-.0899-.1636-.1502s-.076-.1288-.09365-.2014c-.01769-.0726-.02091-.148-.00946-.2219s.03731-.1448.07621-.2086c.0388-.0639.0899-.1195.1502-.1636s.1288-.076.2014-.0937c.0726-.0176.148-.0209.2219-.0094 2.8125.4444 4.8937.2587 7.0819-1.9969.3052-.3112.5944-.6379.8662-.9787.0928-.1159.2277-.1904.3752-.2073s.2957.0253.4123.1173c.0586.0456.1076.1023.1442.167.0366.0646.06.1359.0689.2096s.0031.1485-.0171.22-.0543.1383-.1004.1965c-.27.3375-.5625.6919-.9393 1.0575-.7137.8162-1.5968 1.467-2.5877 1.9071-.9908.4401-2.0658.6588-3.1498.641zm15.2943 7.0931h-5.4618c-.1492 0-.2923-.0592-.3978-.1647s-.1647-.2486-.1647-.3978c0-.1491.0592-.2922.1647-.3977s.2486-.1648.3978-.1648h5.4618c.1492 0 .2923.0593.3978.1648s.1647.2486.1647.3977c0 .1492-.0592.2923-.1647.3978s-.2486.1647-.3978.1647zm-4.3425 2.5313h-17.48247c-.14918 0-.29226-.0593-.39775-.1648-.10549-.1054-.16475-.2485-.16475-.3977s.05926-.2923.16475-.3978c.10549-.1054.24857-.1647.39775-.1647h17.48247c.1492 0 .2923.0593.3978.1647.1055.1055.1647.2486.1647.3978s-.0592.2923-.1647.3977c-.1055.1055-.2486.1648-.3978.1648z"/></g></svg>